%TF.GenerationSoftware,KiCad,Pcbnew,9.0.2*%
%TF.CreationDate,2025-07-11T11:45:56-07:00*%
%TF.ProjectId,Radio,52616469-6f2e-46b6-9963-61645f706362,1*%
%TF.SameCoordinates,Original*%
%TF.FileFunction,Legend,Top*%
%TF.FilePolarity,Positive*%
%FSLAX46Y46*%
G04 Gerber Fmt 4.6, Leading zero omitted, Abs format (unit mm)*
G04 Created by KiCad (PCBNEW 9.0.2) date 2025-07-11 11:45:56*
%MOMM*%
%LPD*%
G01*
G04 APERTURE LIST*
%ADD10C,0.150000*%
%ADD11C,0.250000*%
%ADD12C,0.120000*%
G04 APERTURE END LIST*
D10*
X190666666Y-54304819D02*
X190333333Y-53828628D01*
X190095238Y-54304819D02*
X190095238Y-53304819D01*
X190095238Y-53304819D02*
X190476190Y-53304819D01*
X190476190Y-53304819D02*
X190571428Y-53352438D01*
X190571428Y-53352438D02*
X190619047Y-53400057D01*
X190619047Y-53400057D02*
X190666666Y-53495295D01*
X190666666Y-53495295D02*
X190666666Y-53638152D01*
X190666666Y-53638152D02*
X190619047Y-53733390D01*
X190619047Y-53733390D02*
X190571428Y-53781009D01*
X190571428Y-53781009D02*
X190476190Y-53828628D01*
X190476190Y-53828628D02*
X190095238Y-53828628D01*
X191095238Y-53781009D02*
X191428571Y-53781009D01*
X191571428Y-54304819D02*
X191095238Y-54304819D01*
X191095238Y-54304819D02*
X191095238Y-53304819D01*
X191095238Y-53304819D02*
X191571428Y-53304819D01*
X192333333Y-53781009D02*
X192000000Y-53781009D01*
X192000000Y-54304819D02*
X192000000Y-53304819D01*
X192000000Y-53304819D02*
X192476190Y-53304819D01*
X193000000Y-53304819D02*
X193000000Y-53542914D01*
X192761905Y-53447676D02*
X193000000Y-53542914D01*
X193000000Y-53542914D02*
X193238095Y-53447676D01*
X192857143Y-53733390D02*
X193000000Y-53542914D01*
X193000000Y-53542914D02*
X193142857Y-53733390D01*
X193761905Y-53304819D02*
X193761905Y-53542914D01*
X193523810Y-53447676D02*
X193761905Y-53542914D01*
X193761905Y-53542914D02*
X194000000Y-53447676D01*
X193619048Y-53733390D02*
X193761905Y-53542914D01*
X193761905Y-53542914D02*
X193904762Y-53733390D01*
X127666666Y-102804819D02*
X127333333Y-102328628D01*
X127095238Y-102804819D02*
X127095238Y-101804819D01*
X127095238Y-101804819D02*
X127476190Y-101804819D01*
X127476190Y-101804819D02*
X127571428Y-101852438D01*
X127571428Y-101852438D02*
X127619047Y-101900057D01*
X127619047Y-101900057D02*
X127666666Y-101995295D01*
X127666666Y-101995295D02*
X127666666Y-102138152D01*
X127666666Y-102138152D02*
X127619047Y-102233390D01*
X127619047Y-102233390D02*
X127571428Y-102281009D01*
X127571428Y-102281009D02*
X127476190Y-102328628D01*
X127476190Y-102328628D02*
X127095238Y-102328628D01*
X128095238Y-102281009D02*
X128428571Y-102281009D01*
X128571428Y-102804819D02*
X128095238Y-102804819D01*
X128095238Y-102804819D02*
X128095238Y-101804819D01*
X128095238Y-101804819D02*
X128571428Y-101804819D01*
X129333333Y-102281009D02*
X129000000Y-102281009D01*
X129000000Y-102804819D02*
X129000000Y-101804819D01*
X129000000Y-101804819D02*
X129476190Y-101804819D01*
X130000000Y-101804819D02*
X130000000Y-102042914D01*
X129761905Y-101947676D02*
X130000000Y-102042914D01*
X130000000Y-102042914D02*
X130238095Y-101947676D01*
X129857143Y-102233390D02*
X130000000Y-102042914D01*
X130000000Y-102042914D02*
X130142857Y-102233390D01*
X130761905Y-101804819D02*
X130761905Y-102042914D01*
X130523810Y-101947676D02*
X130761905Y-102042914D01*
X130761905Y-102042914D02*
X131000000Y-101947676D01*
X130619048Y-102233390D02*
X130761905Y-102042914D01*
X130761905Y-102042914D02*
X130904762Y-102233390D01*
X189666666Y-88804819D02*
X189333333Y-88328628D01*
X189095238Y-88804819D02*
X189095238Y-87804819D01*
X189095238Y-87804819D02*
X189476190Y-87804819D01*
X189476190Y-87804819D02*
X189571428Y-87852438D01*
X189571428Y-87852438D02*
X189619047Y-87900057D01*
X189619047Y-87900057D02*
X189666666Y-87995295D01*
X189666666Y-87995295D02*
X189666666Y-88138152D01*
X189666666Y-88138152D02*
X189619047Y-88233390D01*
X189619047Y-88233390D02*
X189571428Y-88281009D01*
X189571428Y-88281009D02*
X189476190Y-88328628D01*
X189476190Y-88328628D02*
X189095238Y-88328628D01*
X190095238Y-88281009D02*
X190428571Y-88281009D01*
X190571428Y-88804819D02*
X190095238Y-88804819D01*
X190095238Y-88804819D02*
X190095238Y-87804819D01*
X190095238Y-87804819D02*
X190571428Y-87804819D01*
X191333333Y-88281009D02*
X191000000Y-88281009D01*
X191000000Y-88804819D02*
X191000000Y-87804819D01*
X191000000Y-87804819D02*
X191476190Y-87804819D01*
X192000000Y-87804819D02*
X192000000Y-88042914D01*
X191761905Y-87947676D02*
X192000000Y-88042914D01*
X192000000Y-88042914D02*
X192238095Y-87947676D01*
X191857143Y-88233390D02*
X192000000Y-88042914D01*
X192000000Y-88042914D02*
X192142857Y-88233390D01*
X192761905Y-87804819D02*
X192761905Y-88042914D01*
X192523810Y-87947676D02*
X192761905Y-88042914D01*
X192761905Y-88042914D02*
X193000000Y-87947676D01*
X192619048Y-88233390D02*
X192761905Y-88042914D01*
X192761905Y-88042914D02*
X192904762Y-88233390D01*
X124666666Y-56304819D02*
X124333333Y-55828628D01*
X124095238Y-56304819D02*
X124095238Y-55304819D01*
X124095238Y-55304819D02*
X124476190Y-55304819D01*
X124476190Y-55304819D02*
X124571428Y-55352438D01*
X124571428Y-55352438D02*
X124619047Y-55400057D01*
X124619047Y-55400057D02*
X124666666Y-55495295D01*
X124666666Y-55495295D02*
X124666666Y-55638152D01*
X124666666Y-55638152D02*
X124619047Y-55733390D01*
X124619047Y-55733390D02*
X124571428Y-55781009D01*
X124571428Y-55781009D02*
X124476190Y-55828628D01*
X124476190Y-55828628D02*
X124095238Y-55828628D01*
X125095238Y-55781009D02*
X125428571Y-55781009D01*
X125571428Y-56304819D02*
X125095238Y-56304819D01*
X125095238Y-56304819D02*
X125095238Y-55304819D01*
X125095238Y-55304819D02*
X125571428Y-55304819D01*
X126333333Y-55781009D02*
X126000000Y-55781009D01*
X126000000Y-56304819D02*
X126000000Y-55304819D01*
X126000000Y-55304819D02*
X126476190Y-55304819D01*
X127000000Y-55304819D02*
X127000000Y-55542914D01*
X126761905Y-55447676D02*
X127000000Y-55542914D01*
X127000000Y-55542914D02*
X127238095Y-55447676D01*
X126857143Y-55733390D02*
X127000000Y-55542914D01*
X127000000Y-55542914D02*
X127142857Y-55733390D01*
X127761905Y-55304819D02*
X127761905Y-55542914D01*
X127523810Y-55447676D02*
X127761905Y-55542914D01*
X127761905Y-55542914D02*
X128000000Y-55447676D01*
X127619048Y-55733390D02*
X127761905Y-55542914D01*
X127761905Y-55542914D02*
X127904762Y-55733390D01*
X173583333Y-107459580D02*
X173535714Y-107507200D01*
X173535714Y-107507200D02*
X173392857Y-107554819D01*
X173392857Y-107554819D02*
X173297619Y-107554819D01*
X173297619Y-107554819D02*
X173154762Y-107507200D01*
X173154762Y-107507200D02*
X173059524Y-107411961D01*
X173059524Y-107411961D02*
X173011905Y-107316723D01*
X173011905Y-107316723D02*
X172964286Y-107126247D01*
X172964286Y-107126247D02*
X172964286Y-106983390D01*
X172964286Y-106983390D02*
X173011905Y-106792914D01*
X173011905Y-106792914D02*
X173059524Y-106697676D01*
X173059524Y-106697676D02*
X173154762Y-106602438D01*
X173154762Y-106602438D02*
X173297619Y-106554819D01*
X173297619Y-106554819D02*
X173392857Y-106554819D01*
X173392857Y-106554819D02*
X173535714Y-106602438D01*
X173535714Y-106602438D02*
X173583333Y-106650057D01*
X173964286Y-106650057D02*
X174011905Y-106602438D01*
X174011905Y-106602438D02*
X174107143Y-106554819D01*
X174107143Y-106554819D02*
X174345238Y-106554819D01*
X174345238Y-106554819D02*
X174440476Y-106602438D01*
X174440476Y-106602438D02*
X174488095Y-106650057D01*
X174488095Y-106650057D02*
X174535714Y-106745295D01*
X174535714Y-106745295D02*
X174535714Y-106840533D01*
X174535714Y-106840533D02*
X174488095Y-106983390D01*
X174488095Y-106983390D02*
X173916667Y-107554819D01*
X173916667Y-107554819D02*
X174535714Y-107554819D01*
X170857142Y-118634819D02*
X170380952Y-118634819D01*
X170380952Y-118634819D02*
X170380952Y-117634819D01*
X171142857Y-118587200D02*
X171285714Y-118634819D01*
X171285714Y-118634819D02*
X171523809Y-118634819D01*
X171523809Y-118634819D02*
X171619047Y-118587200D01*
X171619047Y-118587200D02*
X171666666Y-118539580D01*
X171666666Y-118539580D02*
X171714285Y-118444342D01*
X171714285Y-118444342D02*
X171714285Y-118349104D01*
X171714285Y-118349104D02*
X171666666Y-118253866D01*
X171666666Y-118253866D02*
X171619047Y-118206247D01*
X171619047Y-118206247D02*
X171523809Y-118158628D01*
X171523809Y-118158628D02*
X171333333Y-118111009D01*
X171333333Y-118111009D02*
X171238095Y-118063390D01*
X171238095Y-118063390D02*
X171190476Y-118015771D01*
X171190476Y-118015771D02*
X171142857Y-117920533D01*
X171142857Y-117920533D02*
X171142857Y-117825295D01*
X171142857Y-117825295D02*
X171190476Y-117730057D01*
X171190476Y-117730057D02*
X171238095Y-117682438D01*
X171238095Y-117682438D02*
X171333333Y-117634819D01*
X171333333Y-117634819D02*
X171571428Y-117634819D01*
X171571428Y-117634819D02*
X171714285Y-117682438D01*
X172666666Y-118634819D02*
X172095238Y-118634819D01*
X172380952Y-118634819D02*
X172380952Y-117634819D01*
X172380952Y-117634819D02*
X172285714Y-117777676D01*
X172285714Y-117777676D02*
X172190476Y-117872914D01*
X172190476Y-117872914D02*
X172095238Y-117920533D01*
X123919999Y-115824819D02*
X123586666Y-115348628D01*
X123348571Y-115824819D02*
X123348571Y-114824819D01*
X123348571Y-114824819D02*
X123729523Y-114824819D01*
X123729523Y-114824819D02*
X123824761Y-114872438D01*
X123824761Y-114872438D02*
X123872380Y-114920057D01*
X123872380Y-114920057D02*
X123919999Y-115015295D01*
X123919999Y-115015295D02*
X123919999Y-115158152D01*
X123919999Y-115158152D02*
X123872380Y-115253390D01*
X123872380Y-115253390D02*
X123824761Y-115301009D01*
X123824761Y-115301009D02*
X123729523Y-115348628D01*
X123729523Y-115348628D02*
X123348571Y-115348628D01*
X124348571Y-115158152D02*
X124348571Y-116158152D01*
X124348571Y-115205771D02*
X124443809Y-115158152D01*
X124443809Y-115158152D02*
X124634285Y-115158152D01*
X124634285Y-115158152D02*
X124729523Y-115205771D01*
X124729523Y-115205771D02*
X124777142Y-115253390D01*
X124777142Y-115253390D02*
X124824761Y-115348628D01*
X124824761Y-115348628D02*
X124824761Y-115634342D01*
X124824761Y-115634342D02*
X124777142Y-115729580D01*
X124777142Y-115729580D02*
X124729523Y-115777200D01*
X124729523Y-115777200D02*
X124634285Y-115824819D01*
X124634285Y-115824819D02*
X124443809Y-115824819D01*
X124443809Y-115824819D02*
X124348571Y-115777200D01*
X125681904Y-115158152D02*
X125681904Y-115824819D01*
X125253333Y-115158152D02*
X125253333Y-115681961D01*
X125253333Y-115681961D02*
X125300952Y-115777200D01*
X125300952Y-115777200D02*
X125396190Y-115824819D01*
X125396190Y-115824819D02*
X125539047Y-115824819D01*
X125539047Y-115824819D02*
X125634285Y-115777200D01*
X125634285Y-115777200D02*
X125681904Y-115729580D01*
X126300952Y-115824819D02*
X126205714Y-115777200D01*
X126205714Y-115777200D02*
X126158095Y-115681961D01*
X126158095Y-115681961D02*
X126158095Y-114824819D01*
X126824762Y-115824819D02*
X126729524Y-115777200D01*
X126729524Y-115777200D02*
X126681905Y-115681961D01*
X126681905Y-115681961D02*
X126681905Y-114824819D01*
X127634286Y-115158152D02*
X127634286Y-115824819D01*
X127205715Y-115158152D02*
X127205715Y-115681961D01*
X127205715Y-115681961D02*
X127253334Y-115777200D01*
X127253334Y-115777200D02*
X127348572Y-115824819D01*
X127348572Y-115824819D02*
X127491429Y-115824819D01*
X127491429Y-115824819D02*
X127586667Y-115777200D01*
X127586667Y-115777200D02*
X127634286Y-115729580D01*
X128110477Y-115158152D02*
X128110477Y-116158152D01*
X128110477Y-115205771D02*
X128205715Y-115158152D01*
X128205715Y-115158152D02*
X128396191Y-115158152D01*
X128396191Y-115158152D02*
X128491429Y-115205771D01*
X128491429Y-115205771D02*
X128539048Y-115253390D01*
X128539048Y-115253390D02*
X128586667Y-115348628D01*
X128586667Y-115348628D02*
X128586667Y-115634342D01*
X128586667Y-115634342D02*
X128539048Y-115729580D01*
X128539048Y-115729580D02*
X128491429Y-115777200D01*
X128491429Y-115777200D02*
X128396191Y-115824819D01*
X128396191Y-115824819D02*
X128205715Y-115824819D01*
X128205715Y-115824819D02*
X128110477Y-115777200D01*
X129539048Y-115824819D02*
X128967620Y-115824819D01*
X129253334Y-115824819D02*
X129253334Y-114824819D01*
X129253334Y-114824819D02*
X129158096Y-114967676D01*
X129158096Y-114967676D02*
X129062858Y-115062914D01*
X129062858Y-115062914D02*
X128967620Y-115110533D01*
X127333333Y-67584819D02*
X127000000Y-67108628D01*
X126761905Y-67584819D02*
X126761905Y-66584819D01*
X126761905Y-66584819D02*
X127142857Y-66584819D01*
X127142857Y-66584819D02*
X127238095Y-66632438D01*
X127238095Y-66632438D02*
X127285714Y-66680057D01*
X127285714Y-66680057D02*
X127333333Y-66775295D01*
X127333333Y-66775295D02*
X127333333Y-66918152D01*
X127333333Y-66918152D02*
X127285714Y-67013390D01*
X127285714Y-67013390D02*
X127238095Y-67061009D01*
X127238095Y-67061009D02*
X127142857Y-67108628D01*
X127142857Y-67108628D02*
X126761905Y-67108628D01*
X128190476Y-66918152D02*
X128190476Y-67584819D01*
X127952381Y-66537200D02*
X127714286Y-67251485D01*
X127714286Y-67251485D02*
X128333333Y-67251485D01*
X144583333Y-114959580D02*
X144535714Y-115007200D01*
X144535714Y-115007200D02*
X144392857Y-115054819D01*
X144392857Y-115054819D02*
X144297619Y-115054819D01*
X144297619Y-115054819D02*
X144154762Y-115007200D01*
X144154762Y-115007200D02*
X144059524Y-114911961D01*
X144059524Y-114911961D02*
X144011905Y-114816723D01*
X144011905Y-114816723D02*
X143964286Y-114626247D01*
X143964286Y-114626247D02*
X143964286Y-114483390D01*
X143964286Y-114483390D02*
X144011905Y-114292914D01*
X144011905Y-114292914D02*
X144059524Y-114197676D01*
X144059524Y-114197676D02*
X144154762Y-114102438D01*
X144154762Y-114102438D02*
X144297619Y-114054819D01*
X144297619Y-114054819D02*
X144392857Y-114054819D01*
X144392857Y-114054819D02*
X144535714Y-114102438D01*
X144535714Y-114102438D02*
X144583333Y-114150057D01*
X145440476Y-114388152D02*
X145440476Y-115054819D01*
X145202381Y-114007200D02*
X144964286Y-114721485D01*
X144964286Y-114721485D02*
X145583333Y-114721485D01*
X162584819Y-123666666D02*
X162108628Y-123999999D01*
X162584819Y-124238094D02*
X161584819Y-124238094D01*
X161584819Y-124238094D02*
X161584819Y-123857142D01*
X161584819Y-123857142D02*
X161632438Y-123761904D01*
X161632438Y-123761904D02*
X161680057Y-123714285D01*
X161680057Y-123714285D02*
X161775295Y-123666666D01*
X161775295Y-123666666D02*
X161918152Y-123666666D01*
X161918152Y-123666666D02*
X162013390Y-123714285D01*
X162013390Y-123714285D02*
X162061009Y-123761904D01*
X162061009Y-123761904D02*
X162108628Y-123857142D01*
X162108628Y-123857142D02*
X162108628Y-124238094D01*
X161680057Y-123285713D02*
X161632438Y-123238094D01*
X161632438Y-123238094D02*
X161584819Y-123142856D01*
X161584819Y-123142856D02*
X161584819Y-122904761D01*
X161584819Y-122904761D02*
X161632438Y-122809523D01*
X161632438Y-122809523D02*
X161680057Y-122761904D01*
X161680057Y-122761904D02*
X161775295Y-122714285D01*
X161775295Y-122714285D02*
X161870533Y-122714285D01*
X161870533Y-122714285D02*
X162013390Y-122761904D01*
X162013390Y-122761904D02*
X162584819Y-123333332D01*
X162584819Y-123333332D02*
X162584819Y-122714285D01*
X184916667Y-95907200D02*
X185059524Y-95954819D01*
X185059524Y-95954819D02*
X185297619Y-95954819D01*
X185297619Y-95954819D02*
X185392857Y-95907200D01*
X185392857Y-95907200D02*
X185440476Y-95859580D01*
X185440476Y-95859580D02*
X185488095Y-95764342D01*
X185488095Y-95764342D02*
X185488095Y-95669104D01*
X185488095Y-95669104D02*
X185440476Y-95573866D01*
X185440476Y-95573866D02*
X185392857Y-95526247D01*
X185392857Y-95526247D02*
X185297619Y-95478628D01*
X185297619Y-95478628D02*
X185107143Y-95431009D01*
X185107143Y-95431009D02*
X185011905Y-95383390D01*
X185011905Y-95383390D02*
X184964286Y-95335771D01*
X184964286Y-95335771D02*
X184916667Y-95240533D01*
X184916667Y-95240533D02*
X184916667Y-95145295D01*
X184916667Y-95145295D02*
X184964286Y-95050057D01*
X184964286Y-95050057D02*
X185011905Y-95002438D01*
X185011905Y-95002438D02*
X185107143Y-94954819D01*
X185107143Y-94954819D02*
X185345238Y-94954819D01*
X185345238Y-94954819D02*
X185488095Y-95002438D01*
X185821429Y-94954819D02*
X186059524Y-95954819D01*
X186059524Y-95954819D02*
X186250000Y-95240533D01*
X186250000Y-95240533D02*
X186440476Y-95954819D01*
X186440476Y-95954819D02*
X186678572Y-94954819D01*
X186964286Y-94954819D02*
X187583333Y-94954819D01*
X187583333Y-94954819D02*
X187250000Y-95335771D01*
X187250000Y-95335771D02*
X187392857Y-95335771D01*
X187392857Y-95335771D02*
X187488095Y-95383390D01*
X187488095Y-95383390D02*
X187535714Y-95431009D01*
X187535714Y-95431009D02*
X187583333Y-95526247D01*
X187583333Y-95526247D02*
X187583333Y-95764342D01*
X187583333Y-95764342D02*
X187535714Y-95859580D01*
X187535714Y-95859580D02*
X187488095Y-95907200D01*
X187488095Y-95907200D02*
X187392857Y-95954819D01*
X187392857Y-95954819D02*
X187107143Y-95954819D01*
X187107143Y-95954819D02*
X187011905Y-95907200D01*
X187011905Y-95907200D02*
X186964286Y-95859580D01*
X127333333Y-71084819D02*
X127000000Y-70608628D01*
X126761905Y-71084819D02*
X126761905Y-70084819D01*
X126761905Y-70084819D02*
X127142857Y-70084819D01*
X127142857Y-70084819D02*
X127238095Y-70132438D01*
X127238095Y-70132438D02*
X127285714Y-70180057D01*
X127285714Y-70180057D02*
X127333333Y-70275295D01*
X127333333Y-70275295D02*
X127333333Y-70418152D01*
X127333333Y-70418152D02*
X127285714Y-70513390D01*
X127285714Y-70513390D02*
X127238095Y-70561009D01*
X127238095Y-70561009D02*
X127142857Y-70608628D01*
X127142857Y-70608628D02*
X126761905Y-70608628D01*
X128238095Y-70084819D02*
X127761905Y-70084819D01*
X127761905Y-70084819D02*
X127714286Y-70561009D01*
X127714286Y-70561009D02*
X127761905Y-70513390D01*
X127761905Y-70513390D02*
X127857143Y-70465771D01*
X127857143Y-70465771D02*
X128095238Y-70465771D01*
X128095238Y-70465771D02*
X128190476Y-70513390D01*
X128190476Y-70513390D02*
X128238095Y-70561009D01*
X128238095Y-70561009D02*
X128285714Y-70656247D01*
X128285714Y-70656247D02*
X128285714Y-70894342D01*
X128285714Y-70894342D02*
X128238095Y-70989580D01*
X128238095Y-70989580D02*
X128190476Y-71037200D01*
X128190476Y-71037200D02*
X128095238Y-71084819D01*
X128095238Y-71084819D02*
X127857143Y-71084819D01*
X127857143Y-71084819D02*
X127761905Y-71037200D01*
X127761905Y-71037200D02*
X127714286Y-70989580D01*
X183333333Y-111324819D02*
X183000000Y-110848628D01*
X182761905Y-111324819D02*
X182761905Y-110324819D01*
X182761905Y-110324819D02*
X183142857Y-110324819D01*
X183142857Y-110324819D02*
X183238095Y-110372438D01*
X183238095Y-110372438D02*
X183285714Y-110420057D01*
X183285714Y-110420057D02*
X183333333Y-110515295D01*
X183333333Y-110515295D02*
X183333333Y-110658152D01*
X183333333Y-110658152D02*
X183285714Y-110753390D01*
X183285714Y-110753390D02*
X183238095Y-110801009D01*
X183238095Y-110801009D02*
X183142857Y-110848628D01*
X183142857Y-110848628D02*
X182761905Y-110848628D01*
X184190476Y-110324819D02*
X184000000Y-110324819D01*
X184000000Y-110324819D02*
X183904762Y-110372438D01*
X183904762Y-110372438D02*
X183857143Y-110420057D01*
X183857143Y-110420057D02*
X183761905Y-110562914D01*
X183761905Y-110562914D02*
X183714286Y-110753390D01*
X183714286Y-110753390D02*
X183714286Y-111134342D01*
X183714286Y-111134342D02*
X183761905Y-111229580D01*
X183761905Y-111229580D02*
X183809524Y-111277200D01*
X183809524Y-111277200D02*
X183904762Y-111324819D01*
X183904762Y-111324819D02*
X184095238Y-111324819D01*
X184095238Y-111324819D02*
X184190476Y-111277200D01*
X184190476Y-111277200D02*
X184238095Y-111229580D01*
X184238095Y-111229580D02*
X184285714Y-111134342D01*
X184285714Y-111134342D02*
X184285714Y-110896247D01*
X184285714Y-110896247D02*
X184238095Y-110801009D01*
X184238095Y-110801009D02*
X184190476Y-110753390D01*
X184190476Y-110753390D02*
X184095238Y-110705771D01*
X184095238Y-110705771D02*
X183904762Y-110705771D01*
X183904762Y-110705771D02*
X183809524Y-110753390D01*
X183809524Y-110753390D02*
X183761905Y-110801009D01*
X183761905Y-110801009D02*
X183714286Y-110896247D01*
X154084819Y-113086666D02*
X153608628Y-113419999D01*
X154084819Y-113658094D02*
X153084819Y-113658094D01*
X153084819Y-113658094D02*
X153084819Y-113277142D01*
X153084819Y-113277142D02*
X153132438Y-113181904D01*
X153132438Y-113181904D02*
X153180057Y-113134285D01*
X153180057Y-113134285D02*
X153275295Y-113086666D01*
X153275295Y-113086666D02*
X153418152Y-113086666D01*
X153418152Y-113086666D02*
X153513390Y-113134285D01*
X153513390Y-113134285D02*
X153561009Y-113181904D01*
X153561009Y-113181904D02*
X153608628Y-113277142D01*
X153608628Y-113277142D02*
X153608628Y-113658094D01*
X154084819Y-112134285D02*
X154084819Y-112705713D01*
X154084819Y-112419999D02*
X153084819Y-112419999D01*
X153084819Y-112419999D02*
X153227676Y-112515237D01*
X153227676Y-112515237D02*
X153322914Y-112610475D01*
X153322914Y-112610475D02*
X153370533Y-112705713D01*
X150583333Y-70809580D02*
X150535714Y-70857200D01*
X150535714Y-70857200D02*
X150392857Y-70904819D01*
X150392857Y-70904819D02*
X150297619Y-70904819D01*
X150297619Y-70904819D02*
X150154762Y-70857200D01*
X150154762Y-70857200D02*
X150059524Y-70761961D01*
X150059524Y-70761961D02*
X150011905Y-70666723D01*
X150011905Y-70666723D02*
X149964286Y-70476247D01*
X149964286Y-70476247D02*
X149964286Y-70333390D01*
X149964286Y-70333390D02*
X150011905Y-70142914D01*
X150011905Y-70142914D02*
X150059524Y-70047676D01*
X150059524Y-70047676D02*
X150154762Y-69952438D01*
X150154762Y-69952438D02*
X150297619Y-69904819D01*
X150297619Y-69904819D02*
X150392857Y-69904819D01*
X150392857Y-69904819D02*
X150535714Y-69952438D01*
X150535714Y-69952438D02*
X150583333Y-70000057D01*
X150916667Y-69904819D02*
X151583333Y-69904819D01*
X151583333Y-69904819D02*
X151154762Y-70904819D01*
X140333333Y-121721104D02*
X140809523Y-121721104D01*
X140238095Y-122006819D02*
X140571428Y-121006819D01*
X140571428Y-121006819D02*
X140904761Y-122006819D01*
X141238095Y-121483009D02*
X141571428Y-121483009D01*
X141714285Y-122006819D02*
X141238095Y-122006819D01*
X141238095Y-122006819D02*
X141238095Y-121006819D01*
X141238095Y-121006819D02*
X141714285Y-121006819D01*
X142666666Y-122006819D02*
X142095238Y-122006819D01*
X142380952Y-122006819D02*
X142380952Y-121006819D01*
X142380952Y-121006819D02*
X142285714Y-121149676D01*
X142285714Y-121149676D02*
X142190476Y-121244914D01*
X142190476Y-121244914D02*
X142095238Y-121292533D01*
D11*
X128976190Y-112912238D02*
X128976190Y-114531285D01*
X128976190Y-114531285D02*
X129071428Y-114721761D01*
X129071428Y-114721761D02*
X129166666Y-114817000D01*
X129166666Y-114817000D02*
X129357142Y-114912238D01*
X129357142Y-114912238D02*
X129738095Y-114912238D01*
X129738095Y-114912238D02*
X129928571Y-114817000D01*
X129928571Y-114817000D02*
X130023809Y-114721761D01*
X130023809Y-114721761D02*
X130119047Y-114531285D01*
X130119047Y-114531285D02*
X130119047Y-112912238D01*
X130976190Y-113102714D02*
X131071428Y-113007476D01*
X131071428Y-113007476D02*
X131261904Y-112912238D01*
X131261904Y-112912238D02*
X131738095Y-112912238D01*
X131738095Y-112912238D02*
X131928571Y-113007476D01*
X131928571Y-113007476D02*
X132023809Y-113102714D01*
X132023809Y-113102714D02*
X132119047Y-113293190D01*
X132119047Y-113293190D02*
X132119047Y-113483666D01*
X132119047Y-113483666D02*
X132023809Y-113769380D01*
X132023809Y-113769380D02*
X130880952Y-114912238D01*
X130880952Y-114912238D02*
X132119047Y-114912238D01*
D10*
X136579999Y-115824819D02*
X136246666Y-115348628D01*
X136008571Y-115824819D02*
X136008571Y-114824819D01*
X136008571Y-114824819D02*
X136389523Y-114824819D01*
X136389523Y-114824819D02*
X136484761Y-114872438D01*
X136484761Y-114872438D02*
X136532380Y-114920057D01*
X136532380Y-114920057D02*
X136579999Y-115015295D01*
X136579999Y-115015295D02*
X136579999Y-115158152D01*
X136579999Y-115158152D02*
X136532380Y-115253390D01*
X136532380Y-115253390D02*
X136484761Y-115301009D01*
X136484761Y-115301009D02*
X136389523Y-115348628D01*
X136389523Y-115348628D02*
X136008571Y-115348628D01*
X137008571Y-115158152D02*
X137008571Y-116158152D01*
X137008571Y-115205771D02*
X137103809Y-115158152D01*
X137103809Y-115158152D02*
X137294285Y-115158152D01*
X137294285Y-115158152D02*
X137389523Y-115205771D01*
X137389523Y-115205771D02*
X137437142Y-115253390D01*
X137437142Y-115253390D02*
X137484761Y-115348628D01*
X137484761Y-115348628D02*
X137484761Y-115634342D01*
X137484761Y-115634342D02*
X137437142Y-115729580D01*
X137437142Y-115729580D02*
X137389523Y-115777200D01*
X137389523Y-115777200D02*
X137294285Y-115824819D01*
X137294285Y-115824819D02*
X137103809Y-115824819D01*
X137103809Y-115824819D02*
X137008571Y-115777200D01*
X138341904Y-115158152D02*
X138341904Y-115824819D01*
X137913333Y-115158152D02*
X137913333Y-115681961D01*
X137913333Y-115681961D02*
X137960952Y-115777200D01*
X137960952Y-115777200D02*
X138056190Y-115824819D01*
X138056190Y-115824819D02*
X138199047Y-115824819D01*
X138199047Y-115824819D02*
X138294285Y-115777200D01*
X138294285Y-115777200D02*
X138341904Y-115729580D01*
X138960952Y-115824819D02*
X138865714Y-115777200D01*
X138865714Y-115777200D02*
X138818095Y-115681961D01*
X138818095Y-115681961D02*
X138818095Y-114824819D01*
X139484762Y-115824819D02*
X139389524Y-115777200D01*
X139389524Y-115777200D02*
X139341905Y-115681961D01*
X139341905Y-115681961D02*
X139341905Y-114824819D01*
X140294286Y-115158152D02*
X140294286Y-115824819D01*
X139865715Y-115158152D02*
X139865715Y-115681961D01*
X139865715Y-115681961D02*
X139913334Y-115777200D01*
X139913334Y-115777200D02*
X140008572Y-115824819D01*
X140008572Y-115824819D02*
X140151429Y-115824819D01*
X140151429Y-115824819D02*
X140246667Y-115777200D01*
X140246667Y-115777200D02*
X140294286Y-115729580D01*
X140770477Y-115158152D02*
X140770477Y-116158152D01*
X140770477Y-115205771D02*
X140865715Y-115158152D01*
X140865715Y-115158152D02*
X141056191Y-115158152D01*
X141056191Y-115158152D02*
X141151429Y-115205771D01*
X141151429Y-115205771D02*
X141199048Y-115253390D01*
X141199048Y-115253390D02*
X141246667Y-115348628D01*
X141246667Y-115348628D02*
X141246667Y-115634342D01*
X141246667Y-115634342D02*
X141199048Y-115729580D01*
X141199048Y-115729580D02*
X141151429Y-115777200D01*
X141151429Y-115777200D02*
X141056191Y-115824819D01*
X141056191Y-115824819D02*
X140865715Y-115824819D01*
X140865715Y-115824819D02*
X140770477Y-115777200D01*
X141627620Y-114920057D02*
X141675239Y-114872438D01*
X141675239Y-114872438D02*
X141770477Y-114824819D01*
X141770477Y-114824819D02*
X142008572Y-114824819D01*
X142008572Y-114824819D02*
X142103810Y-114872438D01*
X142103810Y-114872438D02*
X142151429Y-114920057D01*
X142151429Y-114920057D02*
X142199048Y-115015295D01*
X142199048Y-115015295D02*
X142199048Y-115110533D01*
X142199048Y-115110533D02*
X142151429Y-115253390D01*
X142151429Y-115253390D02*
X141580001Y-115824819D01*
X141580001Y-115824819D02*
X142199048Y-115824819D01*
X156928095Y-118004819D02*
X156928095Y-118814342D01*
X156928095Y-118814342D02*
X156975714Y-118909580D01*
X156975714Y-118909580D02*
X157023333Y-118957200D01*
X157023333Y-118957200D02*
X157118571Y-119004819D01*
X157118571Y-119004819D02*
X157309047Y-119004819D01*
X157309047Y-119004819D02*
X157404285Y-118957200D01*
X157404285Y-118957200D02*
X157451904Y-118909580D01*
X157451904Y-118909580D02*
X157499523Y-118814342D01*
X157499523Y-118814342D02*
X157499523Y-118004819D01*
X158499523Y-119004819D02*
X157928095Y-119004819D01*
X158213809Y-119004819D02*
X158213809Y-118004819D01*
X158213809Y-118004819D02*
X158118571Y-118147676D01*
X158118571Y-118147676D02*
X158023333Y-118242914D01*
X158023333Y-118242914D02*
X157928095Y-118290533D01*
X146309580Y-114166666D02*
X146357200Y-114214285D01*
X146357200Y-114214285D02*
X146404819Y-114357142D01*
X146404819Y-114357142D02*
X146404819Y-114452380D01*
X146404819Y-114452380D02*
X146357200Y-114595237D01*
X146357200Y-114595237D02*
X146261961Y-114690475D01*
X146261961Y-114690475D02*
X146166723Y-114738094D01*
X146166723Y-114738094D02*
X145976247Y-114785713D01*
X145976247Y-114785713D02*
X145833390Y-114785713D01*
X145833390Y-114785713D02*
X145642914Y-114738094D01*
X145642914Y-114738094D02*
X145547676Y-114690475D01*
X145547676Y-114690475D02*
X145452438Y-114595237D01*
X145452438Y-114595237D02*
X145404819Y-114452380D01*
X145404819Y-114452380D02*
X145404819Y-114357142D01*
X145404819Y-114357142D02*
X145452438Y-114214285D01*
X145452438Y-114214285D02*
X145500057Y-114166666D01*
X145404819Y-113261904D02*
X145404819Y-113738094D01*
X145404819Y-113738094D02*
X145881009Y-113785713D01*
X145881009Y-113785713D02*
X145833390Y-113738094D01*
X145833390Y-113738094D02*
X145785771Y-113642856D01*
X145785771Y-113642856D02*
X145785771Y-113404761D01*
X145785771Y-113404761D02*
X145833390Y-113309523D01*
X145833390Y-113309523D02*
X145881009Y-113261904D01*
X145881009Y-113261904D02*
X145976247Y-113214285D01*
X145976247Y-113214285D02*
X146214342Y-113214285D01*
X146214342Y-113214285D02*
X146309580Y-113261904D01*
X146309580Y-113261904D02*
X146357200Y-113309523D01*
X146357200Y-113309523D02*
X146404819Y-113404761D01*
X146404819Y-113404761D02*
X146404819Y-113642856D01*
X146404819Y-113642856D02*
X146357200Y-113738094D01*
X146357200Y-113738094D02*
X146309580Y-113785713D01*
X180466667Y-60707200D02*
X180609524Y-60754819D01*
X180609524Y-60754819D02*
X180847619Y-60754819D01*
X180847619Y-60754819D02*
X180942857Y-60707200D01*
X180942857Y-60707200D02*
X180990476Y-60659580D01*
X180990476Y-60659580D02*
X181038095Y-60564342D01*
X181038095Y-60564342D02*
X181038095Y-60469104D01*
X181038095Y-60469104D02*
X180990476Y-60373866D01*
X180990476Y-60373866D02*
X180942857Y-60326247D01*
X180942857Y-60326247D02*
X180847619Y-60278628D01*
X180847619Y-60278628D02*
X180657143Y-60231009D01*
X180657143Y-60231009D02*
X180561905Y-60183390D01*
X180561905Y-60183390D02*
X180514286Y-60135771D01*
X180514286Y-60135771D02*
X180466667Y-60040533D01*
X180466667Y-60040533D02*
X180466667Y-59945295D01*
X180466667Y-59945295D02*
X180514286Y-59850057D01*
X180514286Y-59850057D02*
X180561905Y-59802438D01*
X180561905Y-59802438D02*
X180657143Y-59754819D01*
X180657143Y-59754819D02*
X180895238Y-59754819D01*
X180895238Y-59754819D02*
X181038095Y-59802438D01*
X181371429Y-59754819D02*
X181609524Y-60754819D01*
X181609524Y-60754819D02*
X181800000Y-60040533D01*
X181800000Y-60040533D02*
X181990476Y-60754819D01*
X181990476Y-60754819D02*
X182228572Y-59754819D01*
X182561905Y-59850057D02*
X182609524Y-59802438D01*
X182609524Y-59802438D02*
X182704762Y-59754819D01*
X182704762Y-59754819D02*
X182942857Y-59754819D01*
X182942857Y-59754819D02*
X183038095Y-59802438D01*
X183038095Y-59802438D02*
X183085714Y-59850057D01*
X183085714Y-59850057D02*
X183133333Y-59945295D01*
X183133333Y-59945295D02*
X183133333Y-60040533D01*
X183133333Y-60040533D02*
X183085714Y-60183390D01*
X183085714Y-60183390D02*
X182514286Y-60754819D01*
X182514286Y-60754819D02*
X183133333Y-60754819D01*
X140555180Y-90977619D02*
X141555180Y-90977619D01*
X141555180Y-90977619D02*
X141555180Y-91215714D01*
X141555180Y-91215714D02*
X141507561Y-91358571D01*
X141507561Y-91358571D02*
X141412323Y-91453809D01*
X141412323Y-91453809D02*
X141317085Y-91501428D01*
X141317085Y-91501428D02*
X141126609Y-91549047D01*
X141126609Y-91549047D02*
X140983752Y-91549047D01*
X140983752Y-91549047D02*
X140793276Y-91501428D01*
X140793276Y-91501428D02*
X140698038Y-91453809D01*
X140698038Y-91453809D02*
X140602800Y-91358571D01*
X140602800Y-91358571D02*
X140555180Y-91215714D01*
X140555180Y-91215714D02*
X140555180Y-90977619D01*
X140555180Y-91977619D02*
X141555180Y-91977619D01*
X140602800Y-92406190D02*
X140555180Y-92549047D01*
X140555180Y-92549047D02*
X140555180Y-92787142D01*
X140555180Y-92787142D02*
X140602800Y-92882380D01*
X140602800Y-92882380D02*
X140650419Y-92929999D01*
X140650419Y-92929999D02*
X140745657Y-92977618D01*
X140745657Y-92977618D02*
X140840895Y-92977618D01*
X140840895Y-92977618D02*
X140936133Y-92929999D01*
X140936133Y-92929999D02*
X140983752Y-92882380D01*
X140983752Y-92882380D02*
X141031371Y-92787142D01*
X141031371Y-92787142D02*
X141078990Y-92596666D01*
X141078990Y-92596666D02*
X141126609Y-92501428D01*
X141126609Y-92501428D02*
X141174228Y-92453809D01*
X141174228Y-92453809D02*
X141269466Y-92406190D01*
X141269466Y-92406190D02*
X141364704Y-92406190D01*
X141364704Y-92406190D02*
X141459942Y-92453809D01*
X141459942Y-92453809D02*
X141507561Y-92501428D01*
X141507561Y-92501428D02*
X141555180Y-92596666D01*
X141555180Y-92596666D02*
X141555180Y-92834761D01*
X141555180Y-92834761D02*
X141507561Y-92977618D01*
X140555180Y-93406190D02*
X141555180Y-93406190D01*
X141555180Y-93406190D02*
X141555180Y-93787142D01*
X141555180Y-93787142D02*
X141507561Y-93882380D01*
X141507561Y-93882380D02*
X141459942Y-93929999D01*
X141459942Y-93929999D02*
X141364704Y-93977618D01*
X141364704Y-93977618D02*
X141221847Y-93977618D01*
X141221847Y-93977618D02*
X141126609Y-93929999D01*
X141126609Y-93929999D02*
X141078990Y-93882380D01*
X141078990Y-93882380D02*
X141031371Y-93787142D01*
X141031371Y-93787142D02*
X141031371Y-93406190D01*
X140555180Y-94929999D02*
X140555180Y-94358571D01*
X140555180Y-94644285D02*
X141555180Y-94644285D01*
X141555180Y-94644285D02*
X141412323Y-94549047D01*
X141412323Y-94549047D02*
X141317085Y-94453809D01*
X141317085Y-94453809D02*
X141269466Y-94358571D01*
X144583333Y-122459580D02*
X144535714Y-122507200D01*
X144535714Y-122507200D02*
X144392857Y-122554819D01*
X144392857Y-122554819D02*
X144297619Y-122554819D01*
X144297619Y-122554819D02*
X144154762Y-122507200D01*
X144154762Y-122507200D02*
X144059524Y-122411961D01*
X144059524Y-122411961D02*
X144011905Y-122316723D01*
X144011905Y-122316723D02*
X143964286Y-122126247D01*
X143964286Y-122126247D02*
X143964286Y-121983390D01*
X143964286Y-121983390D02*
X144011905Y-121792914D01*
X144011905Y-121792914D02*
X144059524Y-121697676D01*
X144059524Y-121697676D02*
X144154762Y-121602438D01*
X144154762Y-121602438D02*
X144297619Y-121554819D01*
X144297619Y-121554819D02*
X144392857Y-121554819D01*
X144392857Y-121554819D02*
X144535714Y-121602438D01*
X144535714Y-121602438D02*
X144583333Y-121650057D01*
X145440476Y-121554819D02*
X145250000Y-121554819D01*
X145250000Y-121554819D02*
X145154762Y-121602438D01*
X145154762Y-121602438D02*
X145107143Y-121650057D01*
X145107143Y-121650057D02*
X145011905Y-121792914D01*
X145011905Y-121792914D02*
X144964286Y-121983390D01*
X144964286Y-121983390D02*
X144964286Y-122364342D01*
X144964286Y-122364342D02*
X145011905Y-122459580D01*
X145011905Y-122459580D02*
X145059524Y-122507200D01*
X145059524Y-122507200D02*
X145154762Y-122554819D01*
X145154762Y-122554819D02*
X145345238Y-122554819D01*
X145345238Y-122554819D02*
X145440476Y-122507200D01*
X145440476Y-122507200D02*
X145488095Y-122459580D01*
X145488095Y-122459580D02*
X145535714Y-122364342D01*
X145535714Y-122364342D02*
X145535714Y-122126247D01*
X145535714Y-122126247D02*
X145488095Y-122031009D01*
X145488095Y-122031009D02*
X145440476Y-121983390D01*
X145440476Y-121983390D02*
X145345238Y-121935771D01*
X145345238Y-121935771D02*
X145154762Y-121935771D01*
X145154762Y-121935771D02*
X145059524Y-121983390D01*
X145059524Y-121983390D02*
X145011905Y-122031009D01*
X145011905Y-122031009D02*
X144964286Y-122126247D01*
X183753333Y-79324819D02*
X183420000Y-78848628D01*
X183181905Y-79324819D02*
X183181905Y-78324819D01*
X183181905Y-78324819D02*
X183562857Y-78324819D01*
X183562857Y-78324819D02*
X183658095Y-78372438D01*
X183658095Y-78372438D02*
X183705714Y-78420057D01*
X183705714Y-78420057D02*
X183753333Y-78515295D01*
X183753333Y-78515295D02*
X183753333Y-78658152D01*
X183753333Y-78658152D02*
X183705714Y-78753390D01*
X183705714Y-78753390D02*
X183658095Y-78801009D01*
X183658095Y-78801009D02*
X183562857Y-78848628D01*
X183562857Y-78848628D02*
X183181905Y-78848628D01*
X184229524Y-79324819D02*
X184420000Y-79324819D01*
X184420000Y-79324819D02*
X184515238Y-79277200D01*
X184515238Y-79277200D02*
X184562857Y-79229580D01*
X184562857Y-79229580D02*
X184658095Y-79086723D01*
X184658095Y-79086723D02*
X184705714Y-78896247D01*
X184705714Y-78896247D02*
X184705714Y-78515295D01*
X184705714Y-78515295D02*
X184658095Y-78420057D01*
X184658095Y-78420057D02*
X184610476Y-78372438D01*
X184610476Y-78372438D02*
X184515238Y-78324819D01*
X184515238Y-78324819D02*
X184324762Y-78324819D01*
X184324762Y-78324819D02*
X184229524Y-78372438D01*
X184229524Y-78372438D02*
X184181905Y-78420057D01*
X184181905Y-78420057D02*
X184134286Y-78515295D01*
X184134286Y-78515295D02*
X184134286Y-78753390D01*
X184134286Y-78753390D02*
X184181905Y-78848628D01*
X184181905Y-78848628D02*
X184229524Y-78896247D01*
X184229524Y-78896247D02*
X184324762Y-78943866D01*
X184324762Y-78943866D02*
X184515238Y-78943866D01*
X184515238Y-78943866D02*
X184610476Y-78896247D01*
X184610476Y-78896247D02*
X184658095Y-78848628D01*
X184658095Y-78848628D02*
X184705714Y-78753390D01*
X167538571Y-80543990D02*
X166586190Y-80543990D01*
X167729047Y-79972561D02*
X167062381Y-81972561D01*
X167062381Y-81972561D02*
X166395714Y-79972561D01*
X164681428Y-79972561D02*
X165824285Y-79972561D01*
X165252857Y-79972561D02*
X165252857Y-81972561D01*
X165252857Y-81972561D02*
X165443333Y-81686847D01*
X165443333Y-81686847D02*
X165633809Y-81496371D01*
X165633809Y-81496371D02*
X165824285Y-81401133D01*
X164083333Y-107459580D02*
X164035714Y-107507200D01*
X164035714Y-107507200D02*
X163892857Y-107554819D01*
X163892857Y-107554819D02*
X163797619Y-107554819D01*
X163797619Y-107554819D02*
X163654762Y-107507200D01*
X163654762Y-107507200D02*
X163559524Y-107411961D01*
X163559524Y-107411961D02*
X163511905Y-107316723D01*
X163511905Y-107316723D02*
X163464286Y-107126247D01*
X163464286Y-107126247D02*
X163464286Y-106983390D01*
X163464286Y-106983390D02*
X163511905Y-106792914D01*
X163511905Y-106792914D02*
X163559524Y-106697676D01*
X163559524Y-106697676D02*
X163654762Y-106602438D01*
X163654762Y-106602438D02*
X163797619Y-106554819D01*
X163797619Y-106554819D02*
X163892857Y-106554819D01*
X163892857Y-106554819D02*
X164035714Y-106602438D01*
X164035714Y-106602438D02*
X164083333Y-106650057D01*
X165035714Y-107554819D02*
X164464286Y-107554819D01*
X164750000Y-107554819D02*
X164750000Y-106554819D01*
X164750000Y-106554819D02*
X164654762Y-106697676D01*
X164654762Y-106697676D02*
X164559524Y-106792914D01*
X164559524Y-106792914D02*
X164464286Y-106840533D01*
X148584819Y-123746666D02*
X148108628Y-124079999D01*
X148584819Y-124318094D02*
X147584819Y-124318094D01*
X147584819Y-124318094D02*
X147584819Y-123937142D01*
X147584819Y-123937142D02*
X147632438Y-123841904D01*
X147632438Y-123841904D02*
X147680057Y-123794285D01*
X147680057Y-123794285D02*
X147775295Y-123746666D01*
X147775295Y-123746666D02*
X147918152Y-123746666D01*
X147918152Y-123746666D02*
X148013390Y-123794285D01*
X148013390Y-123794285D02*
X148061009Y-123841904D01*
X148061009Y-123841904D02*
X148108628Y-123937142D01*
X148108628Y-123937142D02*
X148108628Y-124318094D01*
X147584819Y-123413332D02*
X147584819Y-122794285D01*
X147584819Y-122794285D02*
X147965771Y-123127618D01*
X147965771Y-123127618D02*
X147965771Y-122984761D01*
X147965771Y-122984761D02*
X148013390Y-122889523D01*
X148013390Y-122889523D02*
X148061009Y-122841904D01*
X148061009Y-122841904D02*
X148156247Y-122794285D01*
X148156247Y-122794285D02*
X148394342Y-122794285D01*
X148394342Y-122794285D02*
X148489580Y-122841904D01*
X148489580Y-122841904D02*
X148537200Y-122889523D01*
X148537200Y-122889523D02*
X148584819Y-122984761D01*
X148584819Y-122984761D02*
X148584819Y-123270475D01*
X148584819Y-123270475D02*
X148537200Y-123365713D01*
X148537200Y-123365713D02*
X148489580Y-123413332D01*
X184916667Y-81407200D02*
X185059524Y-81454819D01*
X185059524Y-81454819D02*
X185297619Y-81454819D01*
X185297619Y-81454819D02*
X185392857Y-81407200D01*
X185392857Y-81407200D02*
X185440476Y-81359580D01*
X185440476Y-81359580D02*
X185488095Y-81264342D01*
X185488095Y-81264342D02*
X185488095Y-81169104D01*
X185488095Y-81169104D02*
X185440476Y-81073866D01*
X185440476Y-81073866D02*
X185392857Y-81026247D01*
X185392857Y-81026247D02*
X185297619Y-80978628D01*
X185297619Y-80978628D02*
X185107143Y-80931009D01*
X185107143Y-80931009D02*
X185011905Y-80883390D01*
X185011905Y-80883390D02*
X184964286Y-80835771D01*
X184964286Y-80835771D02*
X184916667Y-80740533D01*
X184916667Y-80740533D02*
X184916667Y-80645295D01*
X184916667Y-80645295D02*
X184964286Y-80550057D01*
X184964286Y-80550057D02*
X185011905Y-80502438D01*
X185011905Y-80502438D02*
X185107143Y-80454819D01*
X185107143Y-80454819D02*
X185345238Y-80454819D01*
X185345238Y-80454819D02*
X185488095Y-80502438D01*
X185821429Y-80454819D02*
X186059524Y-81454819D01*
X186059524Y-81454819D02*
X186250000Y-80740533D01*
X186250000Y-80740533D02*
X186440476Y-81454819D01*
X186440476Y-81454819D02*
X186678572Y-80454819D01*
X187488095Y-80788152D02*
X187488095Y-81454819D01*
X187250000Y-80407200D02*
X187011905Y-81121485D01*
X187011905Y-81121485D02*
X187630952Y-81121485D01*
X183253333Y-129324819D02*
X182920000Y-128848628D01*
X182681905Y-129324819D02*
X182681905Y-128324819D01*
X182681905Y-128324819D02*
X183062857Y-128324819D01*
X183062857Y-128324819D02*
X183158095Y-128372438D01*
X183158095Y-128372438D02*
X183205714Y-128420057D01*
X183205714Y-128420057D02*
X183253333Y-128515295D01*
X183253333Y-128515295D02*
X183253333Y-128658152D01*
X183253333Y-128658152D02*
X183205714Y-128753390D01*
X183205714Y-128753390D02*
X183158095Y-128801009D01*
X183158095Y-128801009D02*
X183062857Y-128848628D01*
X183062857Y-128848628D02*
X182681905Y-128848628D01*
X183586667Y-128324819D02*
X184253333Y-128324819D01*
X184253333Y-128324819D02*
X183824762Y-129324819D01*
X180466667Y-110707200D02*
X180609524Y-110754819D01*
X180609524Y-110754819D02*
X180847619Y-110754819D01*
X180847619Y-110754819D02*
X180942857Y-110707200D01*
X180942857Y-110707200D02*
X180990476Y-110659580D01*
X180990476Y-110659580D02*
X181038095Y-110564342D01*
X181038095Y-110564342D02*
X181038095Y-110469104D01*
X181038095Y-110469104D02*
X180990476Y-110373866D01*
X180990476Y-110373866D02*
X180942857Y-110326247D01*
X180942857Y-110326247D02*
X180847619Y-110278628D01*
X180847619Y-110278628D02*
X180657143Y-110231009D01*
X180657143Y-110231009D02*
X180561905Y-110183390D01*
X180561905Y-110183390D02*
X180514286Y-110135771D01*
X180514286Y-110135771D02*
X180466667Y-110040533D01*
X180466667Y-110040533D02*
X180466667Y-109945295D01*
X180466667Y-109945295D02*
X180514286Y-109850057D01*
X180514286Y-109850057D02*
X180561905Y-109802438D01*
X180561905Y-109802438D02*
X180657143Y-109754819D01*
X180657143Y-109754819D02*
X180895238Y-109754819D01*
X180895238Y-109754819D02*
X181038095Y-109802438D01*
X181371429Y-109754819D02*
X181609524Y-110754819D01*
X181609524Y-110754819D02*
X181800000Y-110040533D01*
X181800000Y-110040533D02*
X181990476Y-110754819D01*
X181990476Y-110754819D02*
X182228572Y-109754819D01*
X183133333Y-110754819D02*
X182561905Y-110754819D01*
X182847619Y-110754819D02*
X182847619Y-109754819D01*
X182847619Y-109754819D02*
X182752381Y-109897676D01*
X182752381Y-109897676D02*
X182657143Y-109992914D01*
X182657143Y-109992914D02*
X182561905Y-110040533D01*
X183333333Y-61324819D02*
X183000000Y-60848628D01*
X182761905Y-61324819D02*
X182761905Y-60324819D01*
X182761905Y-60324819D02*
X183142857Y-60324819D01*
X183142857Y-60324819D02*
X183238095Y-60372438D01*
X183238095Y-60372438D02*
X183285714Y-60420057D01*
X183285714Y-60420057D02*
X183333333Y-60515295D01*
X183333333Y-60515295D02*
X183333333Y-60658152D01*
X183333333Y-60658152D02*
X183285714Y-60753390D01*
X183285714Y-60753390D02*
X183238095Y-60801009D01*
X183238095Y-60801009D02*
X183142857Y-60848628D01*
X183142857Y-60848628D02*
X182761905Y-60848628D01*
X183904762Y-60753390D02*
X183809524Y-60705771D01*
X183809524Y-60705771D02*
X183761905Y-60658152D01*
X183761905Y-60658152D02*
X183714286Y-60562914D01*
X183714286Y-60562914D02*
X183714286Y-60515295D01*
X183714286Y-60515295D02*
X183761905Y-60420057D01*
X183761905Y-60420057D02*
X183809524Y-60372438D01*
X183809524Y-60372438D02*
X183904762Y-60324819D01*
X183904762Y-60324819D02*
X184095238Y-60324819D01*
X184095238Y-60324819D02*
X184190476Y-60372438D01*
X184190476Y-60372438D02*
X184238095Y-60420057D01*
X184238095Y-60420057D02*
X184285714Y-60515295D01*
X184285714Y-60515295D02*
X184285714Y-60562914D01*
X184285714Y-60562914D02*
X184238095Y-60658152D01*
X184238095Y-60658152D02*
X184190476Y-60705771D01*
X184190476Y-60705771D02*
X184095238Y-60753390D01*
X184095238Y-60753390D02*
X183904762Y-60753390D01*
X183904762Y-60753390D02*
X183809524Y-60801009D01*
X183809524Y-60801009D02*
X183761905Y-60848628D01*
X183761905Y-60848628D02*
X183714286Y-60943866D01*
X183714286Y-60943866D02*
X183714286Y-61134342D01*
X183714286Y-61134342D02*
X183761905Y-61229580D01*
X183761905Y-61229580D02*
X183809524Y-61277200D01*
X183809524Y-61277200D02*
X183904762Y-61324819D01*
X183904762Y-61324819D02*
X184095238Y-61324819D01*
X184095238Y-61324819D02*
X184190476Y-61277200D01*
X184190476Y-61277200D02*
X184238095Y-61229580D01*
X184238095Y-61229580D02*
X184285714Y-61134342D01*
X184285714Y-61134342D02*
X184285714Y-60943866D01*
X184285714Y-60943866D02*
X184238095Y-60848628D01*
X184238095Y-60848628D02*
X184190476Y-60801009D01*
X184190476Y-60801009D02*
X184095238Y-60753390D01*
X150583333Y-61959580D02*
X150535714Y-62007200D01*
X150535714Y-62007200D02*
X150392857Y-62054819D01*
X150392857Y-62054819D02*
X150297619Y-62054819D01*
X150297619Y-62054819D02*
X150154762Y-62007200D01*
X150154762Y-62007200D02*
X150059524Y-61911961D01*
X150059524Y-61911961D02*
X150011905Y-61816723D01*
X150011905Y-61816723D02*
X149964286Y-61626247D01*
X149964286Y-61626247D02*
X149964286Y-61483390D01*
X149964286Y-61483390D02*
X150011905Y-61292914D01*
X150011905Y-61292914D02*
X150059524Y-61197676D01*
X150059524Y-61197676D02*
X150154762Y-61102438D01*
X150154762Y-61102438D02*
X150297619Y-61054819D01*
X150297619Y-61054819D02*
X150392857Y-61054819D01*
X150392857Y-61054819D02*
X150535714Y-61102438D01*
X150535714Y-61102438D02*
X150583333Y-61150057D01*
X151154762Y-61483390D02*
X151059524Y-61435771D01*
X151059524Y-61435771D02*
X151011905Y-61388152D01*
X151011905Y-61388152D02*
X150964286Y-61292914D01*
X150964286Y-61292914D02*
X150964286Y-61245295D01*
X150964286Y-61245295D02*
X151011905Y-61150057D01*
X151011905Y-61150057D02*
X151059524Y-61102438D01*
X151059524Y-61102438D02*
X151154762Y-61054819D01*
X151154762Y-61054819D02*
X151345238Y-61054819D01*
X151345238Y-61054819D02*
X151440476Y-61102438D01*
X151440476Y-61102438D02*
X151488095Y-61150057D01*
X151488095Y-61150057D02*
X151535714Y-61245295D01*
X151535714Y-61245295D02*
X151535714Y-61292914D01*
X151535714Y-61292914D02*
X151488095Y-61388152D01*
X151488095Y-61388152D02*
X151440476Y-61435771D01*
X151440476Y-61435771D02*
X151345238Y-61483390D01*
X151345238Y-61483390D02*
X151154762Y-61483390D01*
X151154762Y-61483390D02*
X151059524Y-61531009D01*
X151059524Y-61531009D02*
X151011905Y-61578628D01*
X151011905Y-61578628D02*
X150964286Y-61673866D01*
X150964286Y-61673866D02*
X150964286Y-61864342D01*
X150964286Y-61864342D02*
X151011905Y-61959580D01*
X151011905Y-61959580D02*
X151059524Y-62007200D01*
X151059524Y-62007200D02*
X151154762Y-62054819D01*
X151154762Y-62054819D02*
X151345238Y-62054819D01*
X151345238Y-62054819D02*
X151440476Y-62007200D01*
X151440476Y-62007200D02*
X151488095Y-61959580D01*
X151488095Y-61959580D02*
X151535714Y-61864342D01*
X151535714Y-61864342D02*
X151535714Y-61673866D01*
X151535714Y-61673866D02*
X151488095Y-61578628D01*
X151488095Y-61578628D02*
X151440476Y-61531009D01*
X151440476Y-61531009D02*
X151345238Y-61483390D01*
X167309580Y-111666666D02*
X167357200Y-111714285D01*
X167357200Y-111714285D02*
X167404819Y-111857142D01*
X167404819Y-111857142D02*
X167404819Y-111952380D01*
X167404819Y-111952380D02*
X167357200Y-112095237D01*
X167357200Y-112095237D02*
X167261961Y-112190475D01*
X167261961Y-112190475D02*
X167166723Y-112238094D01*
X167166723Y-112238094D02*
X166976247Y-112285713D01*
X166976247Y-112285713D02*
X166833390Y-112285713D01*
X166833390Y-112285713D02*
X166642914Y-112238094D01*
X166642914Y-112238094D02*
X166547676Y-112190475D01*
X166547676Y-112190475D02*
X166452438Y-112095237D01*
X166452438Y-112095237D02*
X166404819Y-111952380D01*
X166404819Y-111952380D02*
X166404819Y-111857142D01*
X166404819Y-111857142D02*
X166452438Y-111714285D01*
X166452438Y-111714285D02*
X166500057Y-111666666D01*
X166404819Y-111333332D02*
X166404819Y-110714285D01*
X166404819Y-110714285D02*
X166785771Y-111047618D01*
X166785771Y-111047618D02*
X166785771Y-110904761D01*
X166785771Y-110904761D02*
X166833390Y-110809523D01*
X166833390Y-110809523D02*
X166881009Y-110761904D01*
X166881009Y-110761904D02*
X166976247Y-110714285D01*
X166976247Y-110714285D02*
X167214342Y-110714285D01*
X167214342Y-110714285D02*
X167309580Y-110761904D01*
X167309580Y-110761904D02*
X167357200Y-110809523D01*
X167357200Y-110809523D02*
X167404819Y-110904761D01*
X167404819Y-110904761D02*
X167404819Y-111190475D01*
X167404819Y-111190475D02*
X167357200Y-111285713D01*
X167357200Y-111285713D02*
X167309580Y-111333332D01*
D12*
%TO.C,C2*%
X170249759Y-109661000D02*
X170879759Y-109661000D01*
X170564759Y-109346000D02*
X170564759Y-109976000D01*
X173750000Y-108270000D02*
X173750000Y-114730000D01*
X173790000Y-108270000D02*
X173790000Y-114730000D01*
X173830000Y-108271000D02*
X173830000Y-114729000D01*
X173870000Y-108272000D02*
X173870000Y-114728000D01*
X173910000Y-108274000D02*
X173910000Y-114726000D01*
X173950000Y-108276000D02*
X173950000Y-114724000D01*
X173990000Y-108279000D02*
X173990000Y-110460000D01*
X173990000Y-112540000D02*
X173990000Y-114721000D01*
X174030000Y-108282000D02*
X174030000Y-110460000D01*
X174030000Y-112540000D02*
X174030000Y-114718000D01*
X174070000Y-108286000D02*
X174070000Y-110460000D01*
X174070000Y-112540000D02*
X174070000Y-114714000D01*
X174110000Y-108290000D02*
X174110000Y-110460000D01*
X174110000Y-112540000D02*
X174110000Y-114710000D01*
X174150000Y-108295000D02*
X174150000Y-110460000D01*
X174150000Y-112540000D02*
X174150000Y-114705000D01*
X174190000Y-108300000D02*
X174190000Y-110460000D01*
X174190000Y-112540000D02*
X174190000Y-114700000D01*
X174230000Y-108305000D02*
X174230000Y-110460000D01*
X174230000Y-112540000D02*
X174230000Y-114695000D01*
X174270000Y-108312000D02*
X174270000Y-110460000D01*
X174270000Y-112540000D02*
X174270000Y-114688000D01*
X174310000Y-108318000D02*
X174310000Y-110460000D01*
X174310000Y-112540000D02*
X174310000Y-114682000D01*
X174350000Y-108326000D02*
X174350000Y-110460000D01*
X174350000Y-112540000D02*
X174350000Y-114674000D01*
X174390000Y-108333000D02*
X174390000Y-110460000D01*
X174390000Y-112540000D02*
X174390000Y-114667000D01*
X174430000Y-108341000D02*
X174430000Y-110460000D01*
X174430000Y-112540000D02*
X174430000Y-114659000D01*
X174470000Y-108350000D02*
X174470000Y-110460000D01*
X174470000Y-112540000D02*
X174470000Y-114650000D01*
X174510000Y-108360000D02*
X174510000Y-110460000D01*
X174510000Y-112540000D02*
X174510000Y-114640000D01*
X174550000Y-108369000D02*
X174550000Y-110460000D01*
X174550000Y-112540000D02*
X174550000Y-114631000D01*
X174590000Y-108380000D02*
X174590000Y-110460000D01*
X174590000Y-112540000D02*
X174590000Y-114620000D01*
X174630000Y-108391000D02*
X174630000Y-110460000D01*
X174630000Y-112540000D02*
X174630000Y-114609000D01*
X174670000Y-108402000D02*
X174670000Y-110460000D01*
X174670000Y-112540000D02*
X174670000Y-114598000D01*
X174710000Y-108414000D02*
X174710000Y-110460000D01*
X174710000Y-112540000D02*
X174710000Y-114586000D01*
X174750000Y-108427000D02*
X174750000Y-110460000D01*
X174750000Y-112540000D02*
X174750000Y-114573000D01*
X174790000Y-108440000D02*
X174790000Y-110460000D01*
X174790000Y-112540000D02*
X174790000Y-114560000D01*
X174830000Y-108453000D02*
X174830000Y-110460000D01*
X174830000Y-112540000D02*
X174830000Y-114547000D01*
X174870000Y-108468000D02*
X174870000Y-110460000D01*
X174870000Y-112540000D02*
X174870000Y-114532000D01*
X174910000Y-108483000D02*
X174910000Y-110460000D01*
X174910000Y-112540000D02*
X174910000Y-114517000D01*
X174950000Y-108498000D02*
X174950000Y-110460000D01*
X174950000Y-112540000D02*
X174950000Y-114502000D01*
X174990000Y-108514000D02*
X174990000Y-110460000D01*
X174990000Y-112540000D02*
X174990000Y-114486000D01*
X175030000Y-108531000D02*
X175030000Y-110460000D01*
X175030000Y-112540000D02*
X175030000Y-114469000D01*
X175070000Y-108548000D02*
X175070000Y-110460000D01*
X175070000Y-112540000D02*
X175070000Y-114452000D01*
X175110000Y-108566000D02*
X175110000Y-110460000D01*
X175110000Y-112540000D02*
X175110000Y-114434000D01*
X175150000Y-108585000D02*
X175150000Y-110460000D01*
X175150000Y-112540000D02*
X175150000Y-114415000D01*
X175190000Y-108604000D02*
X175190000Y-110460000D01*
X175190000Y-112540000D02*
X175190000Y-114396000D01*
X175230000Y-108624000D02*
X175230000Y-110460000D01*
X175230000Y-112540000D02*
X175230000Y-114376000D01*
X175270000Y-108645000D02*
X175270000Y-110460000D01*
X175270000Y-112540000D02*
X175270000Y-114355000D01*
X175310000Y-108666000D02*
X175310000Y-110460000D01*
X175310000Y-112540000D02*
X175310000Y-114334000D01*
X175350000Y-108688000D02*
X175350000Y-110460000D01*
X175350000Y-112540000D02*
X175350000Y-114312000D01*
X175390000Y-108711000D02*
X175390000Y-110460000D01*
X175390000Y-112540000D02*
X175390000Y-114289000D01*
X175430000Y-108735000D02*
X175430000Y-110460000D01*
X175430000Y-112540000D02*
X175430000Y-114265000D01*
X175470000Y-108759000D02*
X175470000Y-110460000D01*
X175470000Y-112540000D02*
X175470000Y-114241000D01*
X175510000Y-108784000D02*
X175510000Y-110460000D01*
X175510000Y-112540000D02*
X175510000Y-114216000D01*
X175550000Y-108810000D02*
X175550000Y-110460000D01*
X175550000Y-112540000D02*
X175550000Y-114190000D01*
X175590000Y-108837000D02*
X175590000Y-110460000D01*
X175590000Y-112540000D02*
X175590000Y-114163000D01*
X175630000Y-108864000D02*
X175630000Y-110460000D01*
X175630000Y-112540000D02*
X175630000Y-114136000D01*
X175670000Y-108893000D02*
X175670000Y-110460000D01*
X175670000Y-112540000D02*
X175670000Y-114107000D01*
X175710000Y-108923000D02*
X175710000Y-110460000D01*
X175710000Y-112540000D02*
X175710000Y-114077000D01*
X175750000Y-108953000D02*
X175750000Y-110460000D01*
X175750000Y-112540000D02*
X175750000Y-114047000D01*
X175790000Y-108984000D02*
X175790000Y-110460000D01*
X175790000Y-112540000D02*
X175790000Y-114016000D01*
X175830000Y-109017000D02*
X175830000Y-110460000D01*
X175830000Y-112540000D02*
X175830000Y-113983000D01*
X175870000Y-109050000D02*
X175870000Y-110460000D01*
X175870000Y-112540000D02*
X175870000Y-113950000D01*
X175910000Y-109085000D02*
X175910000Y-110460000D01*
X175910000Y-112540000D02*
X175910000Y-113915000D01*
X175950000Y-109121000D02*
X175950000Y-110460000D01*
X175950000Y-112540000D02*
X175950000Y-113879000D01*
X175990000Y-109158000D02*
X175990000Y-110460000D01*
X175990000Y-112540000D02*
X175990000Y-113842000D01*
X176030000Y-109196000D02*
X176030000Y-110460000D01*
X176030000Y-112540000D02*
X176030000Y-113804000D01*
X176070000Y-109236000D02*
X176070000Y-113764000D01*
X176110000Y-109277000D02*
X176110000Y-113723000D01*
X176150000Y-109319000D02*
X176150000Y-113681000D01*
X176190000Y-109363000D02*
X176190000Y-113637000D01*
X176230000Y-109409000D02*
X176230000Y-113591000D01*
X176270000Y-109456000D02*
X176270000Y-113544000D01*
X176310000Y-109505000D02*
X176310000Y-113495000D01*
X176350000Y-109557000D02*
X176350000Y-113443000D01*
X176390000Y-109610000D02*
X176390000Y-113390000D01*
X176430000Y-109666000D02*
X176430000Y-113334000D01*
X176470000Y-109725000D02*
X176470000Y-113275000D01*
X176510000Y-109786000D02*
X176510000Y-113214000D01*
X176550000Y-109851000D02*
X176550000Y-113149000D01*
X176590000Y-109919000D02*
X176590000Y-113081000D01*
X176630000Y-109991000D02*
X176630000Y-113009000D01*
X176670000Y-110068000D02*
X176670000Y-112932000D01*
X176710000Y-110150000D02*
X176710000Y-112850000D01*
X176750000Y-110239000D02*
X176750000Y-112761000D01*
X176790000Y-110335000D02*
X176790000Y-112665000D01*
X176830000Y-110442000D02*
X176830000Y-112558000D01*
X176870000Y-110561000D02*
X176870000Y-112439000D01*
X176910000Y-110699000D02*
X176910000Y-112301000D01*
X176950000Y-110867000D02*
X176950000Y-112133000D01*
X176990000Y-111098000D02*
X176990000Y-111902000D01*
X177020000Y-111500000D02*
G75*
G02*
X170480000Y-111500000I-3270000J0D01*
G01*
X170480000Y-111500000D02*
G75*
G02*
X177020000Y-111500000I3270000J0D01*
G01*
%TO.C,LS1*%
X166380000Y-119180000D02*
X166380000Y-129220000D01*
X166380000Y-119180000D02*
X176620000Y-119180000D01*
X166380000Y-122200000D02*
X176620000Y-122200000D01*
X166380000Y-127100000D02*
X176620000Y-127100000D01*
X166380000Y-128600000D02*
X176620000Y-128600000D01*
X166380000Y-129220000D02*
X168700000Y-129220000D01*
X169300000Y-129220000D02*
X176620000Y-129220000D01*
X176620000Y-119180000D02*
X176620000Y-129220000D01*
X169440000Y-129830000D02*
X168560000Y-129830000D01*
X169000000Y-129220000D01*
X169440000Y-129830000D01*
G36*
X169440000Y-129830000D02*
G01*
X168560000Y-129830000D01*
X169000000Y-129220000D01*
X169440000Y-129830000D01*
G37*
%TO.C,Rpullup1*%
X122380000Y-113000000D02*
X123150000Y-113000000D01*
X130460000Y-113000000D02*
X129690000Y-113000000D01*
X129690000Y-114370000D02*
X123150000Y-114370000D01*
X123150000Y-111630000D01*
X129690000Y-111630000D01*
X129690000Y-114370000D01*
%TO.C,R4*%
X123460000Y-69500000D02*
X124230000Y-69500000D01*
X131540000Y-69500000D02*
X130770000Y-69500000D01*
X124230000Y-68130000D02*
X130770000Y-68130000D01*
X130770000Y-70870000D01*
X124230000Y-70870000D01*
X124230000Y-68130000D01*
%TO.C,C4*%
X141249759Y-117161000D02*
X141879759Y-117161000D01*
X141564759Y-116846000D02*
X141564759Y-117476000D01*
X144750000Y-115770000D02*
X144750000Y-122230000D01*
X144790000Y-115770000D02*
X144790000Y-122230000D01*
X144830000Y-115771000D02*
X144830000Y-122229000D01*
X144870000Y-115772000D02*
X144870000Y-122228000D01*
X144910000Y-115774000D02*
X144910000Y-122226000D01*
X144950000Y-115776000D02*
X144950000Y-122224000D01*
X144990000Y-115779000D02*
X144990000Y-117960000D01*
X144990000Y-120040000D02*
X144990000Y-122221000D01*
X145030000Y-115782000D02*
X145030000Y-117960000D01*
X145030000Y-120040000D02*
X145030000Y-122218000D01*
X145070000Y-115786000D02*
X145070000Y-117960000D01*
X145070000Y-120040000D02*
X145070000Y-122214000D01*
X145110000Y-115790000D02*
X145110000Y-117960000D01*
X145110000Y-120040000D02*
X145110000Y-122210000D01*
X145150000Y-115795000D02*
X145150000Y-117960000D01*
X145150000Y-120040000D02*
X145150000Y-122205000D01*
X145190000Y-115800000D02*
X145190000Y-117960000D01*
X145190000Y-120040000D02*
X145190000Y-122200000D01*
X145230000Y-115805000D02*
X145230000Y-117960000D01*
X145230000Y-120040000D02*
X145230000Y-122195000D01*
X145270000Y-115812000D02*
X145270000Y-117960000D01*
X145270000Y-120040000D02*
X145270000Y-122188000D01*
X145310000Y-115818000D02*
X145310000Y-117960000D01*
X145310000Y-120040000D02*
X145310000Y-122182000D01*
X145350000Y-115826000D02*
X145350000Y-117960000D01*
X145350000Y-120040000D02*
X145350000Y-122174000D01*
X145390000Y-115833000D02*
X145390000Y-117960000D01*
X145390000Y-120040000D02*
X145390000Y-122167000D01*
X145430000Y-115841000D02*
X145430000Y-117960000D01*
X145430000Y-120040000D02*
X145430000Y-122159000D01*
X145470000Y-115850000D02*
X145470000Y-117960000D01*
X145470000Y-120040000D02*
X145470000Y-122150000D01*
X145510000Y-115860000D02*
X145510000Y-117960000D01*
X145510000Y-120040000D02*
X145510000Y-122140000D01*
X145550000Y-115869000D02*
X145550000Y-117960000D01*
X145550000Y-120040000D02*
X145550000Y-122131000D01*
X145590000Y-115880000D02*
X145590000Y-117960000D01*
X145590000Y-120040000D02*
X145590000Y-122120000D01*
X145630000Y-115891000D02*
X145630000Y-117960000D01*
X145630000Y-120040000D02*
X145630000Y-122109000D01*
X145670000Y-115902000D02*
X145670000Y-117960000D01*
X145670000Y-120040000D02*
X145670000Y-122098000D01*
X145710000Y-115914000D02*
X145710000Y-117960000D01*
X145710000Y-120040000D02*
X145710000Y-122086000D01*
X145750000Y-115927000D02*
X145750000Y-117960000D01*
X145750000Y-120040000D02*
X145750000Y-122073000D01*
X145790000Y-115940000D02*
X145790000Y-117960000D01*
X145790000Y-120040000D02*
X145790000Y-122060000D01*
X145830000Y-115953000D02*
X145830000Y-117960000D01*
X145830000Y-120040000D02*
X145830000Y-122047000D01*
X145870000Y-115968000D02*
X145870000Y-117960000D01*
X145870000Y-120040000D02*
X145870000Y-122032000D01*
X145910000Y-115983000D02*
X145910000Y-117960000D01*
X145910000Y-120040000D02*
X145910000Y-122017000D01*
X145950000Y-115998000D02*
X145950000Y-117960000D01*
X145950000Y-120040000D02*
X145950000Y-122002000D01*
X145990000Y-116014000D02*
X145990000Y-117960000D01*
X145990000Y-120040000D02*
X145990000Y-121986000D01*
X146030000Y-116031000D02*
X146030000Y-117960000D01*
X146030000Y-120040000D02*
X146030000Y-121969000D01*
X146070000Y-116048000D02*
X146070000Y-117960000D01*
X146070000Y-120040000D02*
X146070000Y-121952000D01*
X146110000Y-116066000D02*
X146110000Y-117960000D01*
X146110000Y-120040000D02*
X146110000Y-121934000D01*
X146150000Y-116085000D02*
X146150000Y-117960000D01*
X146150000Y-120040000D02*
X146150000Y-121915000D01*
X146190000Y-116104000D02*
X146190000Y-117960000D01*
X146190000Y-120040000D02*
X146190000Y-121896000D01*
X146230000Y-116124000D02*
X146230000Y-117960000D01*
X146230000Y-120040000D02*
X146230000Y-121876000D01*
X146270000Y-116145000D02*
X146270000Y-117960000D01*
X146270000Y-120040000D02*
X146270000Y-121855000D01*
X146310000Y-116166000D02*
X146310000Y-117960000D01*
X146310000Y-120040000D02*
X146310000Y-121834000D01*
X146350000Y-116188000D02*
X146350000Y-117960000D01*
X146350000Y-120040000D02*
X146350000Y-121812000D01*
X146390000Y-116211000D02*
X146390000Y-117960000D01*
X146390000Y-120040000D02*
X146390000Y-121789000D01*
X146430000Y-116235000D02*
X146430000Y-117960000D01*
X146430000Y-120040000D02*
X146430000Y-121765000D01*
X146470000Y-116259000D02*
X146470000Y-117960000D01*
X146470000Y-120040000D02*
X146470000Y-121741000D01*
X146510000Y-116284000D02*
X146510000Y-117960000D01*
X146510000Y-120040000D02*
X146510000Y-121716000D01*
X146550000Y-116310000D02*
X146550000Y-117960000D01*
X146550000Y-120040000D02*
X146550000Y-121690000D01*
X146590000Y-116337000D02*
X146590000Y-117960000D01*
X146590000Y-120040000D02*
X146590000Y-121663000D01*
X146630000Y-116364000D02*
X146630000Y-117960000D01*
X146630000Y-120040000D02*
X146630000Y-121636000D01*
X146670000Y-116393000D02*
X146670000Y-117960000D01*
X146670000Y-120040000D02*
X146670000Y-121607000D01*
X146710000Y-116423000D02*
X146710000Y-117960000D01*
X146710000Y-120040000D02*
X146710000Y-121577000D01*
X146750000Y-116453000D02*
X146750000Y-117960000D01*
X146750000Y-120040000D02*
X146750000Y-121547000D01*
X146790000Y-116484000D02*
X146790000Y-117960000D01*
X146790000Y-120040000D02*
X146790000Y-121516000D01*
X146830000Y-116517000D02*
X146830000Y-117960000D01*
X146830000Y-120040000D02*
X146830000Y-121483000D01*
X146870000Y-116550000D02*
X146870000Y-117960000D01*
X146870000Y-120040000D02*
X146870000Y-121450000D01*
X146910000Y-116585000D02*
X146910000Y-117960000D01*
X146910000Y-120040000D02*
X146910000Y-121415000D01*
X146950000Y-116621000D02*
X146950000Y-117960000D01*
X146950000Y-120040000D02*
X146950000Y-121379000D01*
X146990000Y-116658000D02*
X146990000Y-117960000D01*
X146990000Y-120040000D02*
X146990000Y-121342000D01*
X147030000Y-116696000D02*
X147030000Y-117960000D01*
X147030000Y-120040000D02*
X147030000Y-121304000D01*
X147070000Y-116736000D02*
X147070000Y-121264000D01*
X147110000Y-116777000D02*
X147110000Y-121223000D01*
X147150000Y-116819000D02*
X147150000Y-121181000D01*
X147190000Y-116863000D02*
X147190000Y-121137000D01*
X147230000Y-116909000D02*
X147230000Y-121091000D01*
X147270000Y-116956000D02*
X147270000Y-121044000D01*
X147310000Y-117005000D02*
X147310000Y-120995000D01*
X147350000Y-117057000D02*
X147350000Y-120943000D01*
X147390000Y-117110000D02*
X147390000Y-120890000D01*
X147430000Y-117166000D02*
X147430000Y-120834000D01*
X147470000Y-117225000D02*
X147470000Y-120775000D01*
X147510000Y-117286000D02*
X147510000Y-120714000D01*
X147550000Y-117351000D02*
X147550000Y-120649000D01*
X147590000Y-117419000D02*
X147590000Y-120581000D01*
X147630000Y-117491000D02*
X147630000Y-120509000D01*
X147670000Y-117568000D02*
X147670000Y-120432000D01*
X147710000Y-117650000D02*
X147710000Y-120350000D01*
X147750000Y-117739000D02*
X147750000Y-120261000D01*
X147790000Y-117835000D02*
X147790000Y-120165000D01*
X147830000Y-117942000D02*
X147830000Y-120058000D01*
X147870000Y-118061000D02*
X147870000Y-119939000D01*
X147910000Y-118199000D02*
X147910000Y-119801000D01*
X147950000Y-118367000D02*
X147950000Y-119633000D01*
X147990000Y-118598000D02*
X147990000Y-119402000D01*
X148020000Y-119000000D02*
G75*
G02*
X141480000Y-119000000I-3270000J0D01*
G01*
X141480000Y-119000000D02*
G75*
G02*
X148020000Y-119000000I3270000J0D01*
G01*
%TO.C,R2*%
X164500000Y-119460000D02*
X164500000Y-120230000D01*
X164500000Y-127540000D02*
X164500000Y-126770000D01*
X163130000Y-126770000D02*
X165870000Y-126770000D01*
X165870000Y-120230000D01*
X163130000Y-120230000D01*
X163130000Y-126770000D01*
%TO.C,SW3*%
X182750000Y-99000000D02*
X182750000Y-100500000D01*
X184000000Y-103000000D02*
X188500000Y-103000000D01*
X188500000Y-96500000D02*
X184000000Y-96500000D01*
X189750000Y-100500000D02*
X189750000Y-99000000D01*
%TO.C,R5*%
X123460000Y-73000000D02*
X124230000Y-73000000D01*
X131540000Y-73000000D02*
X130770000Y-73000000D01*
X124230000Y-71630000D02*
X130770000Y-71630000D01*
X130770000Y-74370000D01*
X124230000Y-74370000D01*
X124230000Y-71630000D01*
%TO.C,R6*%
X179460000Y-108500000D02*
X180230000Y-108500000D01*
X187540000Y-108500000D02*
X186770000Y-108500000D01*
X186770000Y-109870000D02*
X180230000Y-109870000D01*
X180230000Y-107130000D01*
X186770000Y-107130000D01*
X186770000Y-109870000D01*
%TO.C,R1*%
X156000000Y-108880000D02*
X156000000Y-109650000D01*
X156000000Y-116960000D02*
X156000000Y-116190000D01*
X154630000Y-116190000D02*
X157370000Y-116190000D01*
X157370000Y-109650000D01*
X154630000Y-109650000D01*
X154630000Y-116190000D01*
%TO.C,C7*%
X149985000Y-71580000D02*
X151515000Y-71580000D01*
X149985000Y-73420000D02*
X151515000Y-73420000D01*
%TO.C,AE1*%
X142200000Y-123000000D02*
G75*
G02*
X140800000Y-123000000I-700000J0D01*
G01*
X140800000Y-123000000D02*
G75*
G02*
X142200000Y-123000000I700000J0D01*
G01*
%TO.C,U2*%
D10*
X120500000Y-115500000D02*
X139500000Y-115500000D01*
X139500000Y-129500000D01*
X120500000Y-129500000D01*
X120500000Y-115500000D01*
D12*
%TO.C,Rpullup2*%
X135040000Y-113000000D02*
X135810000Y-113000000D01*
X143120000Y-113000000D02*
X142350000Y-113000000D01*
X142350000Y-114370000D02*
X135810000Y-114370000D01*
X135810000Y-111630000D01*
X142350000Y-111630000D01*
X142350000Y-114370000D01*
%TO.C,U1*%
X155040000Y-119550000D02*
X155040000Y-129830000D01*
X155040000Y-129830000D02*
X160340000Y-129830000D01*
X156690000Y-119550000D02*
X155040000Y-119550000D01*
X160340000Y-119550000D02*
X158690000Y-119550000D01*
X160340000Y-129830000D02*
X160340000Y-119550000D01*
X158690000Y-119550000D02*
G75*
G02*
X156690000Y-119550000I-1000000J0D01*
G01*
%TO.C,C5*%
X147080000Y-114765000D02*
X147080000Y-113235000D01*
X148920000Y-114765000D02*
X148920000Y-113235000D01*
%TO.C,SW2*%
X178700000Y-63400000D02*
X179300000Y-63400000D01*
X179000000Y-63700000D02*
X178700000Y-63400000D01*
X179300000Y-63400000D02*
X179000000Y-63700000D01*
X179800000Y-61200000D02*
X179800000Y-63700000D01*
X179800000Y-73800000D02*
X179800000Y-71000000D01*
X184600000Y-61200000D02*
X179800000Y-61200000D01*
X184700000Y-73800000D02*
X179800000Y-73800000D01*
X186000000Y-67500000D02*
X187000000Y-67500000D01*
X186500000Y-67000000D02*
X186500000Y-68000000D01*
X188300000Y-61200000D02*
X193200000Y-61200000D01*
X193200000Y-61200000D02*
X193200000Y-63800000D01*
X193200000Y-66200000D02*
X193200000Y-68800000D01*
X193200000Y-71200000D02*
X193200000Y-73800000D01*
X193200000Y-73800000D02*
X188300000Y-73800000D01*
X189500000Y-67500000D02*
G75*
G02*
X183500000Y-67500000I-3000000J0D01*
G01*
X183500000Y-67500000D02*
G75*
G02*
X189500000Y-67500000I3000000J0D01*
G01*
D11*
%TO.C,DISP1*%
X151000000Y-101510000D02*
X151000000Y-83260000D01*
X154000000Y-83260000D02*
X151000000Y-83260000D01*
X154000000Y-101510000D02*
X151000000Y-101510000D01*
X154000000Y-101510000D02*
X154000000Y-83260000D01*
D12*
%TO.C,C6*%
X141249759Y-124661000D02*
X141879759Y-124661000D01*
X141564759Y-124346000D02*
X141564759Y-124976000D01*
X144750000Y-123270000D02*
X144750000Y-129730000D01*
X144790000Y-123270000D02*
X144790000Y-129730000D01*
X144830000Y-123271000D02*
X144830000Y-129729000D01*
X144870000Y-123272000D02*
X144870000Y-129728000D01*
X144910000Y-123274000D02*
X144910000Y-129726000D01*
X144950000Y-123276000D02*
X144950000Y-129724000D01*
X144990000Y-123279000D02*
X144990000Y-125460000D01*
X144990000Y-127540000D02*
X144990000Y-129721000D01*
X145030000Y-123282000D02*
X145030000Y-125460000D01*
X145030000Y-127540000D02*
X145030000Y-129718000D01*
X145070000Y-123286000D02*
X145070000Y-125460000D01*
X145070000Y-127540000D02*
X145070000Y-129714000D01*
X145110000Y-123290000D02*
X145110000Y-125460000D01*
X145110000Y-127540000D02*
X145110000Y-129710000D01*
X145150000Y-123295000D02*
X145150000Y-125460000D01*
X145150000Y-127540000D02*
X145150000Y-129705000D01*
X145190000Y-123300000D02*
X145190000Y-125460000D01*
X145190000Y-127540000D02*
X145190000Y-129700000D01*
X145230000Y-123305000D02*
X145230000Y-125460000D01*
X145230000Y-127540000D02*
X145230000Y-129695000D01*
X145270000Y-123312000D02*
X145270000Y-125460000D01*
X145270000Y-127540000D02*
X145270000Y-129688000D01*
X145310000Y-123318000D02*
X145310000Y-125460000D01*
X145310000Y-127540000D02*
X145310000Y-129682000D01*
X145350000Y-123326000D02*
X145350000Y-125460000D01*
X145350000Y-127540000D02*
X145350000Y-129674000D01*
X145390000Y-123333000D02*
X145390000Y-125460000D01*
X145390000Y-127540000D02*
X145390000Y-129667000D01*
X145430000Y-123341000D02*
X145430000Y-125460000D01*
X145430000Y-127540000D02*
X145430000Y-129659000D01*
X145470000Y-123350000D02*
X145470000Y-125460000D01*
X145470000Y-127540000D02*
X145470000Y-129650000D01*
X145510000Y-123360000D02*
X145510000Y-125460000D01*
X145510000Y-127540000D02*
X145510000Y-129640000D01*
X145550000Y-123369000D02*
X145550000Y-125460000D01*
X145550000Y-127540000D02*
X145550000Y-129631000D01*
X145590000Y-123380000D02*
X145590000Y-125460000D01*
X145590000Y-127540000D02*
X145590000Y-129620000D01*
X145630000Y-123391000D02*
X145630000Y-125460000D01*
X145630000Y-127540000D02*
X145630000Y-129609000D01*
X145670000Y-123402000D02*
X145670000Y-125460000D01*
X145670000Y-127540000D02*
X145670000Y-129598000D01*
X145710000Y-123414000D02*
X145710000Y-125460000D01*
X145710000Y-127540000D02*
X145710000Y-129586000D01*
X145750000Y-123427000D02*
X145750000Y-125460000D01*
X145750000Y-127540000D02*
X145750000Y-129573000D01*
X145790000Y-123440000D02*
X145790000Y-125460000D01*
X145790000Y-127540000D02*
X145790000Y-129560000D01*
X145830000Y-123453000D02*
X145830000Y-125460000D01*
X145830000Y-127540000D02*
X145830000Y-129547000D01*
X145870000Y-123468000D02*
X145870000Y-125460000D01*
X145870000Y-127540000D02*
X145870000Y-129532000D01*
X145910000Y-123483000D02*
X145910000Y-125460000D01*
X145910000Y-127540000D02*
X145910000Y-129517000D01*
X145950000Y-123498000D02*
X145950000Y-125460000D01*
X145950000Y-127540000D02*
X145950000Y-129502000D01*
X145990000Y-123514000D02*
X145990000Y-125460000D01*
X145990000Y-127540000D02*
X145990000Y-129486000D01*
X146030000Y-123531000D02*
X146030000Y-125460000D01*
X146030000Y-127540000D02*
X146030000Y-129469000D01*
X146070000Y-123548000D02*
X146070000Y-125460000D01*
X146070000Y-127540000D02*
X146070000Y-129452000D01*
X146110000Y-123566000D02*
X146110000Y-125460000D01*
X146110000Y-127540000D02*
X146110000Y-129434000D01*
X146150000Y-123585000D02*
X146150000Y-125460000D01*
X146150000Y-127540000D02*
X146150000Y-129415000D01*
X146190000Y-123604000D02*
X146190000Y-125460000D01*
X146190000Y-127540000D02*
X146190000Y-129396000D01*
X146230000Y-123624000D02*
X146230000Y-125460000D01*
X146230000Y-127540000D02*
X146230000Y-129376000D01*
X146270000Y-123645000D02*
X146270000Y-125460000D01*
X146270000Y-127540000D02*
X146270000Y-129355000D01*
X146310000Y-123666000D02*
X146310000Y-125460000D01*
X146310000Y-127540000D02*
X146310000Y-129334000D01*
X146350000Y-123688000D02*
X146350000Y-125460000D01*
X146350000Y-127540000D02*
X146350000Y-129312000D01*
X146390000Y-123711000D02*
X146390000Y-125460000D01*
X146390000Y-127540000D02*
X146390000Y-129289000D01*
X146430000Y-123735000D02*
X146430000Y-125460000D01*
X146430000Y-127540000D02*
X146430000Y-129265000D01*
X146470000Y-123759000D02*
X146470000Y-125460000D01*
X146470000Y-127540000D02*
X146470000Y-129241000D01*
X146510000Y-123784000D02*
X146510000Y-125460000D01*
X146510000Y-127540000D02*
X146510000Y-129216000D01*
X146550000Y-123810000D02*
X146550000Y-125460000D01*
X146550000Y-127540000D02*
X146550000Y-129190000D01*
X146590000Y-123837000D02*
X146590000Y-125460000D01*
X146590000Y-127540000D02*
X146590000Y-129163000D01*
X146630000Y-123864000D02*
X146630000Y-125460000D01*
X146630000Y-127540000D02*
X146630000Y-129136000D01*
X146670000Y-123893000D02*
X146670000Y-125460000D01*
X146670000Y-127540000D02*
X146670000Y-129107000D01*
X146710000Y-123923000D02*
X146710000Y-125460000D01*
X146710000Y-127540000D02*
X146710000Y-129077000D01*
X146750000Y-123953000D02*
X146750000Y-125460000D01*
X146750000Y-127540000D02*
X146750000Y-129047000D01*
X146790000Y-123984000D02*
X146790000Y-125460000D01*
X146790000Y-127540000D02*
X146790000Y-129016000D01*
X146830000Y-124017000D02*
X146830000Y-125460000D01*
X146830000Y-127540000D02*
X146830000Y-128983000D01*
X146870000Y-124050000D02*
X146870000Y-125460000D01*
X146870000Y-127540000D02*
X146870000Y-128950000D01*
X146910000Y-124085000D02*
X146910000Y-125460000D01*
X146910000Y-127540000D02*
X146910000Y-128915000D01*
X146950000Y-124121000D02*
X146950000Y-125460000D01*
X146950000Y-127540000D02*
X146950000Y-128879000D01*
X146990000Y-124158000D02*
X146990000Y-125460000D01*
X146990000Y-127540000D02*
X146990000Y-128842000D01*
X147030000Y-124196000D02*
X147030000Y-125460000D01*
X147030000Y-127540000D02*
X147030000Y-128804000D01*
X147070000Y-124236000D02*
X147070000Y-128764000D01*
X147110000Y-124277000D02*
X147110000Y-128723000D01*
X147150000Y-124319000D02*
X147150000Y-128681000D01*
X147190000Y-124363000D02*
X147190000Y-128637000D01*
X147230000Y-124409000D02*
X147230000Y-128591000D01*
X147270000Y-124456000D02*
X147270000Y-128544000D01*
X147310000Y-124505000D02*
X147310000Y-128495000D01*
X147350000Y-124557000D02*
X147350000Y-128443000D01*
X147390000Y-124610000D02*
X147390000Y-128390000D01*
X147430000Y-124666000D02*
X147430000Y-128334000D01*
X147470000Y-124725000D02*
X147470000Y-128275000D01*
X147510000Y-124786000D02*
X147510000Y-128214000D01*
X147550000Y-124851000D02*
X147550000Y-128149000D01*
X147590000Y-124919000D02*
X147590000Y-128081000D01*
X147630000Y-124991000D02*
X147630000Y-128009000D01*
X147670000Y-125068000D02*
X147670000Y-127932000D01*
X147710000Y-125150000D02*
X147710000Y-127850000D01*
X147750000Y-125239000D02*
X147750000Y-127761000D01*
X147790000Y-125335000D02*
X147790000Y-127665000D01*
X147830000Y-125442000D02*
X147830000Y-127558000D01*
X147870000Y-125561000D02*
X147870000Y-127439000D01*
X147910000Y-125699000D02*
X147910000Y-127301000D01*
X147950000Y-125867000D02*
X147950000Y-127133000D01*
X147990000Y-126098000D02*
X147990000Y-126902000D01*
X148020000Y-126500000D02*
G75*
G02*
X141480000Y-126500000I-3270000J0D01*
G01*
X141480000Y-126500000D02*
G75*
G02*
X148020000Y-126500000I3270000J0D01*
G01*
%TO.C,R9*%
X179880000Y-76500000D02*
X180650000Y-76500000D01*
X187960000Y-76500000D02*
X187190000Y-76500000D01*
X187190000Y-77870000D02*
X180650000Y-77870000D01*
X180650000Y-75130000D01*
X187190000Y-75130000D01*
X187190000Y-77870000D01*
%TO.C,A1*%
X156010000Y-106390000D02*
X156010000Y-55390000D01*
X158410000Y-106390000D02*
X158410000Y-55390000D01*
X173810000Y-106390000D02*
X173810000Y-55390000D01*
X176210000Y-103790000D02*
X173810000Y-103790000D01*
X176210000Y-106390000D02*
X176210000Y-55390000D01*
X176610000Y-106390000D02*
X155610000Y-106390000D01*
X155610000Y-55390000D01*
X176610000Y-55390000D01*
X176610000Y-106390000D01*
%TO.C,C1*%
X160749759Y-109661000D02*
X161379759Y-109661000D01*
X161064759Y-109346000D02*
X161064759Y-109976000D01*
X164250000Y-108270000D02*
X164250000Y-114730000D01*
X164290000Y-108270000D02*
X164290000Y-114730000D01*
X164330000Y-108271000D02*
X164330000Y-114729000D01*
X164370000Y-108272000D02*
X164370000Y-114728000D01*
X164410000Y-108274000D02*
X164410000Y-114726000D01*
X164450000Y-108276000D02*
X164450000Y-114724000D01*
X164490000Y-108279000D02*
X164490000Y-110460000D01*
X164490000Y-112540000D02*
X164490000Y-114721000D01*
X164530000Y-108282000D02*
X164530000Y-110460000D01*
X164530000Y-112540000D02*
X164530000Y-114718000D01*
X164570000Y-108286000D02*
X164570000Y-110460000D01*
X164570000Y-112540000D02*
X164570000Y-114714000D01*
X164610000Y-108290000D02*
X164610000Y-110460000D01*
X164610000Y-112540000D02*
X164610000Y-114710000D01*
X164650000Y-108295000D02*
X164650000Y-110460000D01*
X164650000Y-112540000D02*
X164650000Y-114705000D01*
X164690000Y-108300000D02*
X164690000Y-110460000D01*
X164690000Y-112540000D02*
X164690000Y-114700000D01*
X164730000Y-108305000D02*
X164730000Y-110460000D01*
X164730000Y-112540000D02*
X164730000Y-114695000D01*
X164770000Y-108312000D02*
X164770000Y-110460000D01*
X164770000Y-112540000D02*
X164770000Y-114688000D01*
X164810000Y-108318000D02*
X164810000Y-110460000D01*
X164810000Y-112540000D02*
X164810000Y-114682000D01*
X164850000Y-108326000D02*
X164850000Y-110460000D01*
X164850000Y-112540000D02*
X164850000Y-114674000D01*
X164890000Y-108333000D02*
X164890000Y-110460000D01*
X164890000Y-112540000D02*
X164890000Y-114667000D01*
X164930000Y-108341000D02*
X164930000Y-110460000D01*
X164930000Y-112540000D02*
X164930000Y-114659000D01*
X164970000Y-108350000D02*
X164970000Y-110460000D01*
X164970000Y-112540000D02*
X164970000Y-114650000D01*
X165010000Y-108360000D02*
X165010000Y-110460000D01*
X165010000Y-112540000D02*
X165010000Y-114640000D01*
X165050000Y-108369000D02*
X165050000Y-110460000D01*
X165050000Y-112540000D02*
X165050000Y-114631000D01*
X165090000Y-108380000D02*
X165090000Y-110460000D01*
X165090000Y-112540000D02*
X165090000Y-114620000D01*
X165130000Y-108391000D02*
X165130000Y-110460000D01*
X165130000Y-112540000D02*
X165130000Y-114609000D01*
X165170000Y-108402000D02*
X165170000Y-110460000D01*
X165170000Y-112540000D02*
X165170000Y-114598000D01*
X165210000Y-108414000D02*
X165210000Y-110460000D01*
X165210000Y-112540000D02*
X165210000Y-114586000D01*
X165250000Y-108427000D02*
X165250000Y-110460000D01*
X165250000Y-112540000D02*
X165250000Y-114573000D01*
X165290000Y-108440000D02*
X165290000Y-110460000D01*
X165290000Y-112540000D02*
X165290000Y-114560000D01*
X165330000Y-108453000D02*
X165330000Y-110460000D01*
X165330000Y-112540000D02*
X165330000Y-114547000D01*
X165370000Y-108468000D02*
X165370000Y-110460000D01*
X165370000Y-112540000D02*
X165370000Y-114532000D01*
X165410000Y-108483000D02*
X165410000Y-110460000D01*
X165410000Y-112540000D02*
X165410000Y-114517000D01*
X165450000Y-108498000D02*
X165450000Y-110460000D01*
X165450000Y-112540000D02*
X165450000Y-114502000D01*
X165490000Y-108514000D02*
X165490000Y-110460000D01*
X165490000Y-112540000D02*
X165490000Y-114486000D01*
X165530000Y-108531000D02*
X165530000Y-110460000D01*
X165530000Y-112540000D02*
X165530000Y-114469000D01*
X165570000Y-108548000D02*
X165570000Y-110460000D01*
X165570000Y-112540000D02*
X165570000Y-114452000D01*
X165610000Y-108566000D02*
X165610000Y-110460000D01*
X165610000Y-112540000D02*
X165610000Y-114434000D01*
X165650000Y-108585000D02*
X165650000Y-110460000D01*
X165650000Y-112540000D02*
X165650000Y-114415000D01*
X165690000Y-108604000D02*
X165690000Y-110460000D01*
X165690000Y-112540000D02*
X165690000Y-114396000D01*
X165730000Y-108624000D02*
X165730000Y-110460000D01*
X165730000Y-112540000D02*
X165730000Y-114376000D01*
X165770000Y-108645000D02*
X165770000Y-110460000D01*
X165770000Y-112540000D02*
X165770000Y-114355000D01*
X165810000Y-108666000D02*
X165810000Y-110460000D01*
X165810000Y-112540000D02*
X165810000Y-114334000D01*
X165850000Y-108688000D02*
X165850000Y-110460000D01*
X165850000Y-112540000D02*
X165850000Y-114312000D01*
X165890000Y-108711000D02*
X165890000Y-110460000D01*
X165890000Y-112540000D02*
X165890000Y-114289000D01*
X165930000Y-108735000D02*
X165930000Y-110460000D01*
X165930000Y-112540000D02*
X165930000Y-114265000D01*
X165970000Y-108759000D02*
X165970000Y-110460000D01*
X165970000Y-112540000D02*
X165970000Y-114241000D01*
X166010000Y-108784000D02*
X166010000Y-110460000D01*
X166010000Y-112540000D02*
X166010000Y-114216000D01*
X166050000Y-108810000D02*
X166050000Y-110460000D01*
X166050000Y-112540000D02*
X166050000Y-114190000D01*
X166090000Y-108837000D02*
X166090000Y-110460000D01*
X166090000Y-112540000D02*
X166090000Y-114163000D01*
X166130000Y-108864000D02*
X166130000Y-110460000D01*
X166130000Y-112540000D02*
X166130000Y-114136000D01*
X166170000Y-108893000D02*
X166170000Y-110460000D01*
X166170000Y-112540000D02*
X166170000Y-114107000D01*
X166210000Y-108923000D02*
X166210000Y-110460000D01*
X166210000Y-112540000D02*
X166210000Y-114077000D01*
X166250000Y-108953000D02*
X166250000Y-110460000D01*
X166250000Y-112540000D02*
X166250000Y-114047000D01*
X166290000Y-108984000D02*
X166290000Y-110460000D01*
X166290000Y-112540000D02*
X166290000Y-114016000D01*
X166330000Y-109017000D02*
X166330000Y-110460000D01*
X166330000Y-112540000D02*
X166330000Y-113983000D01*
X166370000Y-109050000D02*
X166370000Y-110460000D01*
X166370000Y-112540000D02*
X166370000Y-113950000D01*
X166410000Y-109085000D02*
X166410000Y-110460000D01*
X166410000Y-112540000D02*
X166410000Y-113915000D01*
X166450000Y-109121000D02*
X166450000Y-110460000D01*
X166450000Y-112540000D02*
X166450000Y-113879000D01*
X166490000Y-109158000D02*
X166490000Y-110460000D01*
X166490000Y-112540000D02*
X166490000Y-113842000D01*
X166530000Y-109196000D02*
X166530000Y-110460000D01*
X166530000Y-112540000D02*
X166530000Y-113804000D01*
X166570000Y-109236000D02*
X166570000Y-113764000D01*
X166610000Y-109277000D02*
X166610000Y-113723000D01*
X166650000Y-109319000D02*
X166650000Y-113681000D01*
X166690000Y-109363000D02*
X166690000Y-113637000D01*
X166730000Y-109409000D02*
X166730000Y-113591000D01*
X166770000Y-109456000D02*
X166770000Y-113544000D01*
X166810000Y-109505000D02*
X166810000Y-113495000D01*
X166850000Y-109557000D02*
X166850000Y-113443000D01*
X166890000Y-109610000D02*
X166890000Y-113390000D01*
X166930000Y-109666000D02*
X166930000Y-113334000D01*
X166970000Y-109725000D02*
X166970000Y-113275000D01*
X167010000Y-109786000D02*
X167010000Y-113214000D01*
X167050000Y-109851000D02*
X167050000Y-113149000D01*
X167090000Y-109919000D02*
X167090000Y-113081000D01*
X167130000Y-109991000D02*
X167130000Y-113009000D01*
X167170000Y-110068000D02*
X167170000Y-112932000D01*
X167210000Y-110150000D02*
X167210000Y-112850000D01*
X167250000Y-110239000D02*
X167250000Y-112761000D01*
X167290000Y-110335000D02*
X167290000Y-112665000D01*
X167330000Y-110442000D02*
X167330000Y-112558000D01*
X167370000Y-110561000D02*
X167370000Y-112439000D01*
X167410000Y-110699000D02*
X167410000Y-112301000D01*
X167450000Y-110867000D02*
X167450000Y-112133000D01*
X167490000Y-111098000D02*
X167490000Y-111902000D01*
X167520000Y-111500000D02*
G75*
G02*
X160980000Y-111500000I-3270000J0D01*
G01*
X160980000Y-111500000D02*
G75*
G02*
X167520000Y-111500000I3270000J0D01*
G01*
%TO.C,R3*%
X150500000Y-119540000D02*
X150500000Y-120310000D01*
X150500000Y-127620000D02*
X150500000Y-126850000D01*
X149130000Y-126850000D02*
X151870000Y-126850000D01*
X151870000Y-120310000D01*
X149130000Y-120310000D01*
X149130000Y-126850000D01*
%TO.C,SW4*%
X182750000Y-84500000D02*
X182750000Y-86000000D01*
X184000000Y-88500000D02*
X188500000Y-88500000D01*
X188500000Y-82000000D02*
X184000000Y-82000000D01*
X189750000Y-86000000D02*
X189750000Y-84500000D01*
%TO.C,R7*%
X179380000Y-126500000D02*
X180150000Y-126500000D01*
X187460000Y-126500000D02*
X186690000Y-126500000D01*
X186690000Y-127870000D02*
X180150000Y-127870000D01*
X180150000Y-125130000D01*
X186690000Y-125130000D01*
X186690000Y-127870000D01*
%TO.C,SW1*%
X178700000Y-113400000D02*
X179300000Y-113400000D01*
X179000000Y-113700000D02*
X178700000Y-113400000D01*
X179300000Y-113400000D02*
X179000000Y-113700000D01*
X179800000Y-111200000D02*
X179800000Y-113700000D01*
X179800000Y-123800000D02*
X179800000Y-121000000D01*
X184600000Y-111200000D02*
X179800000Y-111200000D01*
X184700000Y-123800000D02*
X179800000Y-123800000D01*
X186000000Y-117500000D02*
X187000000Y-117500000D01*
X186500000Y-117000000D02*
X186500000Y-118000000D01*
X188300000Y-111200000D02*
X193200000Y-111200000D01*
X193200000Y-111200000D02*
X193200000Y-113800000D01*
X193200000Y-116200000D02*
X193200000Y-118800000D01*
X193200000Y-121200000D02*
X193200000Y-123800000D01*
X193200000Y-123800000D02*
X188300000Y-123800000D01*
X189500000Y-117500000D02*
G75*
G02*
X183500000Y-117500000I-3000000J0D01*
G01*
X183500000Y-117500000D02*
G75*
G02*
X189500000Y-117500000I3000000J0D01*
G01*
%TO.C,R8*%
X179460000Y-58500000D02*
X180230000Y-58500000D01*
X187540000Y-58500000D02*
X186770000Y-58500000D01*
X186770000Y-59870000D02*
X180230000Y-59870000D01*
X180230000Y-57130000D01*
X186770000Y-57130000D01*
X186770000Y-59870000D01*
%TO.C,C8*%
X147249759Y-64161000D02*
X147879759Y-64161000D01*
X147564759Y-63846000D02*
X147564759Y-64476000D01*
X150750000Y-62770000D02*
X150750000Y-69230000D01*
X150790000Y-62770000D02*
X150790000Y-69230000D01*
X150830000Y-62771000D02*
X150830000Y-69229000D01*
X150870000Y-62772000D02*
X150870000Y-69228000D01*
X150910000Y-62774000D02*
X150910000Y-69226000D01*
X150950000Y-62776000D02*
X150950000Y-69224000D01*
X150990000Y-62779000D02*
X150990000Y-64960000D01*
X150990000Y-67040000D02*
X150990000Y-69221000D01*
X151030000Y-62782000D02*
X151030000Y-64960000D01*
X151030000Y-67040000D02*
X151030000Y-69218000D01*
X151070000Y-62786000D02*
X151070000Y-64960000D01*
X151070000Y-67040000D02*
X151070000Y-69214000D01*
X151110000Y-62790000D02*
X151110000Y-64960000D01*
X151110000Y-67040000D02*
X151110000Y-69210000D01*
X151150000Y-62795000D02*
X151150000Y-64960000D01*
X151150000Y-67040000D02*
X151150000Y-69205000D01*
X151190000Y-62800000D02*
X151190000Y-64960000D01*
X151190000Y-67040000D02*
X151190000Y-69200000D01*
X151230000Y-62805000D02*
X151230000Y-64960000D01*
X151230000Y-67040000D02*
X151230000Y-69195000D01*
X151270000Y-62812000D02*
X151270000Y-64960000D01*
X151270000Y-67040000D02*
X151270000Y-69188000D01*
X151310000Y-62818000D02*
X151310000Y-64960000D01*
X151310000Y-67040000D02*
X151310000Y-69182000D01*
X151350000Y-62826000D02*
X151350000Y-64960000D01*
X151350000Y-67040000D02*
X151350000Y-69174000D01*
X151390000Y-62833000D02*
X151390000Y-64960000D01*
X151390000Y-67040000D02*
X151390000Y-69167000D01*
X151430000Y-62841000D02*
X151430000Y-64960000D01*
X151430000Y-67040000D02*
X151430000Y-69159000D01*
X151470000Y-62850000D02*
X151470000Y-64960000D01*
X151470000Y-67040000D02*
X151470000Y-69150000D01*
X151510000Y-62860000D02*
X151510000Y-64960000D01*
X151510000Y-67040000D02*
X151510000Y-69140000D01*
X151550000Y-62869000D02*
X151550000Y-64960000D01*
X151550000Y-67040000D02*
X151550000Y-69131000D01*
X151590000Y-62880000D02*
X151590000Y-64960000D01*
X151590000Y-67040000D02*
X151590000Y-69120000D01*
X151630000Y-62891000D02*
X151630000Y-64960000D01*
X151630000Y-67040000D02*
X151630000Y-69109000D01*
X151670000Y-62902000D02*
X151670000Y-64960000D01*
X151670000Y-67040000D02*
X151670000Y-69098000D01*
X151710000Y-62914000D02*
X151710000Y-64960000D01*
X151710000Y-67040000D02*
X151710000Y-69086000D01*
X151750000Y-62927000D02*
X151750000Y-64960000D01*
X151750000Y-67040000D02*
X151750000Y-69073000D01*
X151790000Y-62940000D02*
X151790000Y-64960000D01*
X151790000Y-67040000D02*
X151790000Y-69060000D01*
X151830000Y-62953000D02*
X151830000Y-64960000D01*
X151830000Y-67040000D02*
X151830000Y-69047000D01*
X151870000Y-62968000D02*
X151870000Y-64960000D01*
X151870000Y-67040000D02*
X151870000Y-69032000D01*
X151910000Y-62983000D02*
X151910000Y-64960000D01*
X151910000Y-67040000D02*
X151910000Y-69017000D01*
X151950000Y-62998000D02*
X151950000Y-64960000D01*
X151950000Y-67040000D02*
X151950000Y-69002000D01*
X151990000Y-63014000D02*
X151990000Y-64960000D01*
X151990000Y-67040000D02*
X151990000Y-68986000D01*
X152030000Y-63031000D02*
X152030000Y-64960000D01*
X152030000Y-67040000D02*
X152030000Y-68969000D01*
X152070000Y-63048000D02*
X152070000Y-64960000D01*
X152070000Y-67040000D02*
X152070000Y-68952000D01*
X152110000Y-63066000D02*
X152110000Y-64960000D01*
X152110000Y-67040000D02*
X152110000Y-68934000D01*
X152150000Y-63085000D02*
X152150000Y-64960000D01*
X152150000Y-67040000D02*
X152150000Y-68915000D01*
X152190000Y-63104000D02*
X152190000Y-64960000D01*
X152190000Y-67040000D02*
X152190000Y-68896000D01*
X152230000Y-63124000D02*
X152230000Y-64960000D01*
X152230000Y-67040000D02*
X152230000Y-68876000D01*
X152270000Y-63145000D02*
X152270000Y-64960000D01*
X152270000Y-67040000D02*
X152270000Y-68855000D01*
X152310000Y-63166000D02*
X152310000Y-64960000D01*
X152310000Y-67040000D02*
X152310000Y-68834000D01*
X152350000Y-63188000D02*
X152350000Y-64960000D01*
X152350000Y-67040000D02*
X152350000Y-68812000D01*
X152390000Y-63211000D02*
X152390000Y-64960000D01*
X152390000Y-67040000D02*
X152390000Y-68789000D01*
X152430000Y-63235000D02*
X152430000Y-64960000D01*
X152430000Y-67040000D02*
X152430000Y-68765000D01*
X152470000Y-63259000D02*
X152470000Y-64960000D01*
X152470000Y-67040000D02*
X152470000Y-68741000D01*
X152510000Y-63284000D02*
X152510000Y-64960000D01*
X152510000Y-67040000D02*
X152510000Y-68716000D01*
X152550000Y-63310000D02*
X152550000Y-64960000D01*
X152550000Y-67040000D02*
X152550000Y-68690000D01*
X152590000Y-63337000D02*
X152590000Y-64960000D01*
X152590000Y-67040000D02*
X152590000Y-68663000D01*
X152630000Y-63364000D02*
X152630000Y-64960000D01*
X152630000Y-67040000D02*
X152630000Y-68636000D01*
X152670000Y-63393000D02*
X152670000Y-64960000D01*
X152670000Y-67040000D02*
X152670000Y-68607000D01*
X152710000Y-63423000D02*
X152710000Y-64960000D01*
X152710000Y-67040000D02*
X152710000Y-68577000D01*
X152750000Y-63453000D02*
X152750000Y-64960000D01*
X152750000Y-67040000D02*
X152750000Y-68547000D01*
X152790000Y-63484000D02*
X152790000Y-64960000D01*
X152790000Y-67040000D02*
X152790000Y-68516000D01*
X152830000Y-63517000D02*
X152830000Y-64960000D01*
X152830000Y-67040000D02*
X152830000Y-68483000D01*
X152870000Y-63550000D02*
X152870000Y-64960000D01*
X152870000Y-67040000D02*
X152870000Y-68450000D01*
X152910000Y-63585000D02*
X152910000Y-64960000D01*
X152910000Y-67040000D02*
X152910000Y-68415000D01*
X152950000Y-63621000D02*
X152950000Y-64960000D01*
X152950000Y-67040000D02*
X152950000Y-68379000D01*
X152990000Y-63658000D02*
X152990000Y-64960000D01*
X152990000Y-67040000D02*
X152990000Y-68342000D01*
X153030000Y-63696000D02*
X153030000Y-64960000D01*
X153030000Y-67040000D02*
X153030000Y-68304000D01*
X153070000Y-63736000D02*
X153070000Y-68264000D01*
X153110000Y-63777000D02*
X153110000Y-68223000D01*
X153150000Y-63819000D02*
X153150000Y-68181000D01*
X153190000Y-63863000D02*
X153190000Y-68137000D01*
X153230000Y-63909000D02*
X153230000Y-68091000D01*
X153270000Y-63956000D02*
X153270000Y-68044000D01*
X153310000Y-64005000D02*
X153310000Y-67995000D01*
X153350000Y-64057000D02*
X153350000Y-67943000D01*
X153390000Y-64110000D02*
X153390000Y-67890000D01*
X153430000Y-64166000D02*
X153430000Y-67834000D01*
X153470000Y-64225000D02*
X153470000Y-67775000D01*
X153510000Y-64286000D02*
X153510000Y-67714000D01*
X153550000Y-64351000D02*
X153550000Y-67649000D01*
X153590000Y-64419000D02*
X153590000Y-67581000D01*
X153630000Y-64491000D02*
X153630000Y-67509000D01*
X153670000Y-64568000D02*
X153670000Y-67432000D01*
X153710000Y-64650000D02*
X153710000Y-67350000D01*
X153750000Y-64739000D02*
X153750000Y-67261000D01*
X153790000Y-64835000D02*
X153790000Y-67165000D01*
X153830000Y-64942000D02*
X153830000Y-67058000D01*
X153870000Y-65061000D02*
X153870000Y-66939000D01*
X153910000Y-65199000D02*
X153910000Y-66801000D01*
X153950000Y-65367000D02*
X153950000Y-66633000D01*
X153990000Y-65598000D02*
X153990000Y-66402000D01*
X154020000Y-66000000D02*
G75*
G02*
X147480000Y-66000000I-3270000J0D01*
G01*
X147480000Y-66000000D02*
G75*
G02*
X154020000Y-66000000I3270000J0D01*
G01*
%TO.C,C3*%
X168080000Y-112265000D02*
X168080000Y-110735000D01*
X169920000Y-112265000D02*
X169920000Y-110735000D01*
%TD*%
M02*
