M48
; DRILL file {KiCad 9.0.2} date 2025-07-11T11:45:30-0700
; FORMAT={-:-/ absolute / metric / decimal}
; #@! TF.CreationDate,2025-07-11T11:45:30-07:00
; #@! TF.GenerationSoftware,Kicad,Pcbnew,9.0.2
; #@! TF.FileFunction,Plated,1,4,PTH
FMAT,2
METRIC
; #@! TA.AperFunction,Plated,PTH,ComponentDrill
T1C0.800
; #@! TA.AperFunction,Plated,PTH,ComponentDrill
T2C1.000
; #@! TA.AperFunction,Plated,PTH,ComponentDrill
T3C1.100
; #@! TA.AperFunction,Plated,PTH,ComponentDrill
T4C1.300
; #@! TA.AperFunction,Plated,PTH,ComponentDrill
T5C2.000
%
G90
G05
T1
X121.34Y-113.0
X122.42Y-69.5
X122.42Y-73.0
X131.5Y-113.0
X132.58Y-69.5
X132.58Y-73.0
X134.0Y-113.0
X143.5Y-119.0
X143.5Y-126.5
X144.16Y-113.0
X146.0Y-119.0
X146.0Y-126.5
X148.0Y-112.75
X148.0Y-115.25
X149.5Y-66.0
X149.5Y-72.5
X150.5Y-118.5
X150.5Y-128.66
X152.0Y-66.0
X152.0Y-72.5
X153.88Y-120.88
X153.88Y-123.42
X153.88Y-125.96
X153.88Y-128.5
X156.0Y-107.84
X156.0Y-118.0
X161.5Y-120.88
X161.5Y-123.42
X161.5Y-125.96
X161.5Y-128.5
X163.0Y-111.5
X164.5Y-118.42
X164.5Y-128.58
X165.5Y-111.5
X169.0Y-110.25
X169.0Y-112.75
X172.5Y-111.5
X175.0Y-111.5
X178.34Y-126.5
X178.42Y-58.5
X178.42Y-108.5
X178.84Y-76.5
X188.5Y-126.5
X188.58Y-58.5
X188.58Y-108.5
X189.0Y-76.5
T2
X122.38Y-117.42
X122.38Y-119.96
X122.38Y-122.5
X122.38Y-125.04
X122.38Y-127.58
X137.62Y-117.42
X137.62Y-119.96
X137.62Y-122.5
X137.62Y-125.04
X137.62Y-127.58
X152.5Y-84.76
X152.5Y-87.3
X152.5Y-89.84
X152.5Y-92.38
X152.5Y-94.92
X152.5Y-97.46
X152.5Y-100.0
X157.22Y-56.76
X157.22Y-59.3
X157.22Y-61.84
X157.22Y-64.38
X157.22Y-66.92
X157.22Y-69.46
X157.22Y-72.0
X157.22Y-74.54
X157.22Y-77.08
X157.22Y-79.62
X157.22Y-82.16
X157.22Y-84.7
X157.22Y-87.24
X157.22Y-89.78
X157.22Y-92.32
X157.22Y-94.86
X157.22Y-97.4
X157.22Y-99.94
X157.22Y-102.48
X157.22Y-105.02
X175.0Y-56.76
X175.0Y-59.3
X175.0Y-61.84
X175.0Y-64.38
X175.0Y-66.92
X175.0Y-69.46
X175.0Y-72.0
X175.0Y-74.54
X175.0Y-77.08
X175.0Y-79.62
X175.0Y-82.16
X175.0Y-84.7
X175.0Y-87.24
X175.0Y-89.78
X175.0Y-92.32
X175.0Y-94.86
X175.0Y-97.4
X175.0Y-99.94
X175.0Y-102.48
X175.0Y-105.02
X179.0Y-65.0
X179.0Y-67.5
X179.0Y-70.0
X179.0Y-115.0
X179.0Y-117.5
X179.0Y-120.0
X193.5Y-65.0
X193.5Y-70.0
X193.5Y-115.0
X193.5Y-120.0
T3
X183.0Y-83.0
X183.0Y-87.5
X183.0Y-97.5
X183.0Y-102.0
X189.5Y-83.0
X189.5Y-87.5
X189.5Y-97.5
X189.5Y-102.0
T4
X169.0Y-124.5
X174.0Y-124.5
T5
G00X186.25Y-61.9
M15
G01X186.75Y-61.9
M16
G05
G00X186.25Y-73.1
M15
G01X186.75Y-73.1
M16
G05
G00X186.25Y-111.9
M15
G01X186.75Y-111.9
M16
G05
G00X186.25Y-123.1
M15
G01X186.75Y-123.1
M16
G05
M30
