%TF.GenerationSoftware,KiCad,Pcbnew,9.0.2*%
%TF.CreationDate,2025-07-11T11:45:56-07:00*%
%TF.ProjectId,Radio,52616469-6f2e-46b6-9963-61645f706362,1*%
%TF.SameCoordinates,Original*%
%TF.FileFunction,Copper,L1,Top*%
%TF.FilePolarity,Positive*%
%FSLAX46Y46*%
G04 Gerber Fmt 4.6, Leading zero omitted, Abs format (unit mm)*
G04 Created by KiCad (PCBNEW 9.0.2) date 2025-07-11 11:45:56*
%MOMM*%
%LPD*%
G01*
G04 APERTURE LIST*
G04 Aperture macros list*
%AMRoundRect*
0 Rectangle with rounded corners*
0 $1 Rounding radius*
0 $2 $3 $4 $5 $6 $7 $8 $9 X,Y pos of 4 corners*
0 Add a 4 corners polygon primitive as box body*
4,1,4,$2,$3,$4,$5,$6,$7,$8,$9,$2,$3,0*
0 Add four circle primitives for the rounded corners*
1,1,$1+$1,$2,$3*
1,1,$1+$1,$4,$5*
1,1,$1+$1,$6,$7*
1,1,$1+$1,$8,$9*
0 Add four rect primitives between the rounded corners*
20,1,$1+$1,$2,$3,$4,$5,0*
20,1,$1+$1,$4,$5,$6,$7,0*
20,1,$1+$1,$6,$7,$8,$9,0*
20,1,$1+$1,$8,$9,$2,$3,0*%
G04 Aperture macros list end*
%TA.AperFunction,ComponentPad*%
%ADD10RoundRect,0.250000X-0.550000X-0.550000X0.550000X-0.550000X0.550000X0.550000X-0.550000X0.550000X0*%
%TD*%
%TA.AperFunction,ComponentPad*%
%ADD11C,1.600000*%
%TD*%
%TA.AperFunction,ComponentPad*%
%ADD12RoundRect,0.250000X-1.050000X-1.050000X1.050000X-1.050000X1.050000X1.050000X-1.050000X1.050000X0*%
%TD*%
%TA.AperFunction,ComponentPad*%
%ADD13C,2.600000*%
%TD*%
%TA.AperFunction,ComponentPad*%
%ADD14C,2.000000*%
%TD*%
%TA.AperFunction,SMDPad,CuDef*%
%ADD15C,1.000000*%
%TD*%
%TA.AperFunction,ComponentPad*%
%ADD16R,1.700000X1.700000*%
%TD*%
%TA.AperFunction,ComponentPad*%
%ADD17C,1.700000*%
%TD*%
%TA.AperFunction,ComponentPad*%
%ADD18R,2.000000X2.000000*%
%TD*%
%TA.AperFunction,ComponentPad*%
%ADD19R,3.000000X2.500000*%
%TD*%
%TA.AperFunction,Conductor*%
%ADD20C,0.200000*%
%TD*%
G04 APERTURE END LIST*
D10*
%TO.P,C2,1*%
%TO.N,Net-(C2-Pad1)*%
X172500000Y-111500000D03*
D11*
%TO.P,C2,2*%
%TO.N,Net-(C2-Pad2)*%
X175000000Y-111500000D03*
%TD*%
D12*
%TO.P,LS1,1,1*%
%TO.N,Net-(C2-Pad2)*%
X169000000Y-124500000D03*
D13*
%TO.P,LS1,2,2*%
%TO.N,Net-(DISP1-VSS{slash}GND)*%
X174000000Y-124500000D03*
%TD*%
D11*
%TO.P,Rpullup1,1*%
%TO.N,Net-(A1-3V3)*%
X131500000Y-113000000D03*
%TO.P,Rpullup1,2*%
%TO.N,Net-(A1-GPIO26_ADC0)*%
X121340000Y-113000000D03*
%TD*%
%TO.P,R4,1*%
%TO.N,Net-(C4-Pad1)*%
X122420000Y-69500000D03*
%TO.P,R4,2*%
%TO.N,Net-(U2-LOUT)*%
X132580000Y-69500000D03*
%TD*%
D10*
%TO.P,C4,1*%
%TO.N,Net-(C4-Pad1)*%
X143500000Y-119000000D03*
D11*
%TO.P,C4,2*%
%TO.N,Net-(U1-+)*%
X146000000Y-119000000D03*
%TD*%
%TO.P,R2,1*%
%TO.N,Net-(R2-Pad1)*%
X164500000Y-128580000D03*
%TO.P,R2,2*%
%TO.N,Net-(R2-Pad2)*%
X164500000Y-118420000D03*
%TD*%
D14*
%TO.P,SW3,1,1*%
%TO.N,Net-(A1-GPIO3)*%
X183000000Y-97500000D03*
X189500000Y-97500000D03*
%TO.P,SW3,2,2*%
%TO.N,Net-(A1-3V3)*%
X183000000Y-102000000D03*
X189500000Y-102000000D03*
%TD*%
D11*
%TO.P,R5,1*%
%TO.N,Net-(U2-ROUT)*%
X122420000Y-73000000D03*
%TO.P,R5,2*%
%TO.N,Net-(C4-Pad1)*%
X132580000Y-73000000D03*
%TD*%
%TO.P,R6,1*%
%TO.N,Net-(R6-Pad1)*%
X188580000Y-108500000D03*
%TO.P,R6,2*%
%TO.N,Net-(A1-GPIO1)*%
X178420000Y-108500000D03*
%TD*%
%TO.P,R1,1*%
%TO.N,Net-(DISP1-VSS{slash}GND)*%
X156000000Y-118000000D03*
%TO.P,R1,2*%
%TO.N,Net-(C3-Pad1)*%
X156000000Y-107840000D03*
%TD*%
%TO.P,C7,1*%
%TO.N,Net-(DISP1-VSS{slash}GND)*%
X149500000Y-72500000D03*
%TO.P,C7,2*%
%TO.N,Net-(A1-3V3)*%
X152000000Y-72500000D03*
%TD*%
D15*
%TO.P,AE1,1,A*%
%TO.N,Net-(AE1-A)*%
X141500000Y-123000000D03*
%TD*%
D16*
%TO.P,U2,1,SDIO*%
%TO.N,Net-(A1-GPIO26_ADC0)*%
X122380000Y-117420000D03*
D17*
%TO.P,U2,2,SCLK*%
%TO.N,Net-(A1-GPIO27_ADC1)*%
X122380000Y-119960000D03*
%TO.P,U2,3,N/C*%
%TO.N,unconnected-(U2-N{slash}C-Pad3)*%
X122380000Y-122500000D03*
%TO.P,U2,4,N/C*%
%TO.N,unconnected-(U2-N{slash}C-Pad4)*%
X122380000Y-125040000D03*
%TO.P,U2,5,VDD*%
%TO.N,Net-(A1-3V3)*%
X122380000Y-127580000D03*
%TO.P,U2,6,GND*%
%TO.N,Net-(DISP1-VSS{slash}GND)*%
X137620000Y-127580000D03*
%TO.P,U2,7,ROUT*%
%TO.N,Net-(U2-ROUT)*%
X137620000Y-125040000D03*
%TO.P,U2,8,LOUT*%
%TO.N,Net-(U2-LOUT)*%
X137620000Y-122500000D03*
%TO.P,U2,9,N/C*%
%TO.N,unconnected-(U2-N{slash}C-Pad9)*%
X137620000Y-119960000D03*
%TO.P,U2,10,FMIN*%
%TO.N,Net-(AE1-A)*%
X137620000Y-117420000D03*
%TD*%
D11*
%TO.P,Rpullup2,1*%
%TO.N,Net-(A1-3V3)*%
X144160000Y-113000000D03*
%TO.P,Rpullup2,2*%
%TO.N,Net-(A1-GPIO27_ADC1)*%
X134000000Y-113000000D03*
%TD*%
D10*
%TO.P,U1,1,GAIN*%
%TO.N,Net-(R2-Pad1)*%
X153880000Y-120880000D03*
D11*
%TO.P,U1,2,-*%
%TO.N,Net-(DISP1-VSS{slash}GND)*%
X153880000Y-123420000D03*
%TO.P,U1,3,+*%
%TO.N,Net-(U1-+)*%
X153880000Y-125960000D03*
%TO.P,U1,4,GND*%
%TO.N,Net-(DISP1-VSS{slash}GND)*%
X153880000Y-128500000D03*
%TO.P,U1,5*%
%TO.N,Net-(C2-Pad1)*%
X161500000Y-128500000D03*
%TO.P,U1,6,V+*%
%TO.N,Net-(A1-VBUS)*%
X161500000Y-125960000D03*
%TO.P,U1,7,BYPASS*%
%TO.N,Net-(U1-BYPASS)*%
X161500000Y-123420000D03*
%TO.P,U1,8,GAIN*%
%TO.N,Net-(R2-Pad2)*%
X161500000Y-120880000D03*
%TD*%
%TO.P,C5,1*%
%TO.N,Net-(DISP1-VSS{slash}GND)*%
X148000000Y-115250000D03*
%TO.P,C5,2*%
%TO.N,Net-(A1-VBUS)*%
X148000000Y-112750000D03*
%TD*%
D18*
%TO.P,SW2,A,A*%
%TO.N,Net-(R8-Pad1)*%
X179000000Y-65000000D03*
D14*
%TO.P,SW2,B,B*%
%TO.N,Net-(R9-Pad1)*%
X179000000Y-70000000D03*
%TO.P,SW2,C,C*%
%TO.N,Net-(DISP1-VSS{slash}GND)*%
X179000000Y-67500000D03*
D19*
%TO.P,SW2,MP*%
%TO.N,unconnected-(SW2-PadMP)_1*%
X186500000Y-61900000D03*
%TO.N,unconnected-(SW2-PadMP)*%
X186500000Y-73100000D03*
D14*
%TO.P,SW2,S1,S1*%
%TO.N,Net-(A1-3V3)*%
X193500000Y-65000000D03*
%TO.P,SW2,S2,S2*%
%TO.N,Net-(A1-GPIO13)*%
X193500000Y-70000000D03*
%TD*%
D16*
%TO.P,DISP1,1,VSS/GND*%
%TO.N,Net-(DISP1-VSS{slash}GND)*%
X152500000Y-84760000D03*
D17*
%TO.P,DISP1,2,VDD*%
%TO.N,Net-(A1-3V3)*%
X152500000Y-87300000D03*
%TO.P,DISP1,3,SCLK*%
%TO.N,Net-(A1-GPIO16)*%
X152500000Y-89840000D03*
%TO.P,DISP1,4,SDA*%
%TO.N,Net-(A1-GPIO19)*%
X152500000Y-92380000D03*
%TO.P,DISP1,5,RES*%
%TO.N,Net-(A1-GPIO20)*%
X152500000Y-94920000D03*
%TO.P,DISP1,6,DC*%
%TO.N,Net-(A1-GPIO21)*%
X152500000Y-97460000D03*
%TO.P,DISP1,7,CS*%
%TO.N,Net-(A1-GPIO17)*%
X152500000Y-100000000D03*
%TD*%
D10*
%TO.P,C6,1*%
%TO.N,Net-(DISP1-VSS{slash}GND)*%
X143500000Y-126500000D03*
D11*
%TO.P,C6,2*%
%TO.N,Net-(A1-VBUS)*%
X146000000Y-126500000D03*
%TD*%
%TO.P,R9,1*%
%TO.N,Net-(R9-Pad1)*%
X189000000Y-76500000D03*
%TO.P,R9,2*%
%TO.N,Net-(A1-GPIO15)*%
X178840000Y-76500000D03*
%TD*%
D16*
%TO.P,A1,1,GPIO0*%
%TO.N,Net-(A1-GPIO0)*%
X175000000Y-105020000D03*
D17*
%TO.P,A1,2,GPIO1*%
%TO.N,Net-(A1-GPIO1)*%
X175000000Y-102480000D03*
%TO.P,A1,3,GND*%
%TO.N,Net-(DISP1-VSS{slash}GND)*%
X175000000Y-99940000D03*
%TO.P,A1,4,GPIO2*%
%TO.N,Net-(A1-GPIO2)*%
X175000000Y-97400000D03*
%TO.P,A1,5,GPIO3*%
%TO.N,Net-(A1-GPIO3)*%
X175000000Y-94860000D03*
%TO.P,A1,6,GPIO4*%
%TO.N,unconnected-(A1-GPIO4-Pad6)*%
X175000000Y-92320000D03*
%TO.P,A1,7,GPIO5*%
%TO.N,unconnected-(A1-GPIO5-Pad7)*%
X175000000Y-89780000D03*
%TO.P,A1,8,GND*%
%TO.N,Net-(DISP1-VSS{slash}GND)*%
X175000000Y-87240000D03*
%TO.P,A1,9,GPIO6*%
%TO.N,unconnected-(A1-GPIO6-Pad9)*%
X175000000Y-84700000D03*
%TO.P,A1,10,GPIO7*%
%TO.N,Net-(A1-GPIO7)*%
X175000000Y-82160000D03*
%TO.P,A1,11,GPIO8*%
%TO.N,unconnected-(A1-GPIO8-Pad11)*%
X175000000Y-79620000D03*
%TO.P,A1,12,GPIO9*%
%TO.N,unconnected-(A1-GPIO9-Pad12)*%
X175000000Y-77080000D03*
%TO.P,A1,13,GND*%
%TO.N,Net-(DISP1-VSS{slash}GND)*%
X175000000Y-74540000D03*
%TO.P,A1,14,GPIO10*%
%TO.N,unconnected-(A1-GPIO10-Pad14)*%
X175000000Y-72000000D03*
%TO.P,A1,15,GPIO11*%
%TO.N,unconnected-(A1-GPIO11-Pad15)*%
X175000000Y-69460000D03*
%TO.P,A1,16,GPIO12*%
%TO.N,unconnected-(A1-GPIO12-Pad16)*%
X175000000Y-66920000D03*
%TO.P,A1,17,GPIO13*%
%TO.N,Net-(A1-GPIO13)*%
X175000000Y-64380000D03*
%TO.P,A1,18,GND*%
%TO.N,Net-(DISP1-VSS{slash}GND)*%
X175000000Y-61840000D03*
%TO.P,A1,19,GPIO14*%
%TO.N,Net-(A1-GPIO14)*%
X175000000Y-59300000D03*
%TO.P,A1,20,GPIO15*%
%TO.N,Net-(A1-GPIO15)*%
X175000000Y-56760000D03*
%TO.P,A1,21,GPIO16*%
%TO.N,Net-(A1-GPIO16)*%
X157220000Y-56760000D03*
%TO.P,A1,22,GPIO17*%
%TO.N,Net-(A1-GPIO17)*%
X157220000Y-59300000D03*
%TO.P,A1,23,GND*%
%TO.N,Net-(DISP1-VSS{slash}GND)*%
X157220000Y-61840000D03*
%TO.P,A1,24,GPIO18*%
%TO.N,unconnected-(A1-GPIO18-Pad24)*%
X157220000Y-64380000D03*
%TO.P,A1,25,GPIO19*%
%TO.N,Net-(A1-GPIO19)*%
X157220000Y-66920000D03*
%TO.P,A1,26,GPIO20*%
%TO.N,Net-(A1-GPIO20)*%
X157220000Y-69460000D03*
%TO.P,A1,27,GPIO21*%
%TO.N,Net-(A1-GPIO21)*%
X157220000Y-72000000D03*
%TO.P,A1,28,GND*%
%TO.N,Net-(DISP1-VSS{slash}GND)*%
X157220000Y-74540000D03*
%TO.P,A1,29,GPIO22*%
%TO.N,unconnected-(A1-GPIO22-Pad29)*%
X157220000Y-77080000D03*
%TO.P,A1,30,RUN*%
%TO.N,unconnected-(A1-RUN-Pad30)*%
X157220000Y-79620000D03*
%TO.P,A1,31,GPIO26_ADC0*%
%TO.N,Net-(A1-GPIO26_ADC0)*%
X157220000Y-82160000D03*
%TO.P,A1,32,GPIO27_ADC1*%
%TO.N,Net-(A1-GPIO27_ADC1)*%
X157220000Y-84700000D03*
%TO.P,A1,33,AGND*%
%TO.N,unconnected-(A1-AGND-Pad33)*%
X157220000Y-87240000D03*
%TO.P,A1,34,GPIO28_ADC2*%
%TO.N,unconnected-(A1-GPIO28_ADC2-Pad34)*%
X157220000Y-89780000D03*
%TO.P,A1,35,ADC_VREF*%
%TO.N,unconnected-(A1-ADC_VREF-Pad35)*%
X157220000Y-92320000D03*
%TO.P,A1,36,3V3*%
%TO.N,Net-(A1-3V3)*%
X157220000Y-94860000D03*
%TO.P,A1,37,3V3_EN*%
%TO.N,unconnected-(A1-3V3_EN-Pad37)*%
X157220000Y-97400000D03*
%TO.P,A1,38,GND*%
%TO.N,Net-(DISP1-VSS{slash}GND)*%
X157220000Y-99940000D03*
%TO.P,A1,39,VSYS*%
%TO.N,unconnected-(A1-VSYS-Pad39)*%
X157220000Y-102480000D03*
%TO.P,A1,40,VBUS*%
%TO.N,Net-(A1-VBUS)*%
X157220000Y-105020000D03*
%TD*%
D10*
%TO.P,C1,1*%
%TO.N,Net-(DISP1-VSS{slash}GND)*%
X163000000Y-111500000D03*
D11*
%TO.P,C1,2*%
%TO.N,Net-(U1-BYPASS)*%
X165500000Y-111500000D03*
%TD*%
%TO.P,R3,1*%
%TO.N,Net-(DISP1-VSS{slash}GND)*%
X150500000Y-128660000D03*
%TO.P,R3,2*%
%TO.N,Net-(C4-Pad1)*%
X150500000Y-118500000D03*
%TD*%
D14*
%TO.P,SW4,1,1*%
%TO.N,Net-(A1-GPIO7)*%
X183000000Y-83000000D03*
X189500000Y-83000000D03*
%TO.P,SW4,2,2*%
%TO.N,Net-(A1-3V3)*%
X183000000Y-87500000D03*
X189500000Y-87500000D03*
%TD*%
D11*
%TO.P,R7,1*%
%TO.N,Net-(R7-Pad1)*%
X188500000Y-126500000D03*
%TO.P,R7,2*%
%TO.N,Net-(A1-GPIO2)*%
X178340000Y-126500000D03*
%TD*%
D18*
%TO.P,SW1,A,A*%
%TO.N,Net-(R6-Pad1)*%
X179000000Y-115000000D03*
D14*
%TO.P,SW1,B,B*%
%TO.N,Net-(R7-Pad1)*%
X179000000Y-120000000D03*
%TO.P,SW1,C,C*%
%TO.N,Net-(DISP1-VSS{slash}GND)*%
X179000000Y-117500000D03*
D19*
%TO.P,SW1,MP*%
%TO.N,unconnected-(SW1-PadMP)_1*%
X186500000Y-111900000D03*
%TO.N,unconnected-(SW1-PadMP)*%
X186500000Y-123100000D03*
D14*
%TO.P,SW1,S1,S1*%
%TO.N,Net-(A1-3V3)*%
X193500000Y-115000000D03*
%TO.P,SW1,S2,S2*%
%TO.N,Net-(A1-GPIO0)*%
X193500000Y-120000000D03*
%TD*%
D11*
%TO.P,R8,1*%
%TO.N,Net-(R8-Pad1)*%
X188580000Y-58500000D03*
%TO.P,R8,2*%
%TO.N,Net-(A1-GPIO14)*%
X178420000Y-58500000D03*
%TD*%
D10*
%TO.P,C8,1*%
%TO.N,Net-(DISP1-VSS{slash}GND)*%
X149500000Y-66000000D03*
D11*
%TO.P,C8,2*%
%TO.N,Net-(A1-3V3)*%
X152000000Y-66000000D03*
%TD*%
%TO.P,C3,1*%
%TO.N,Net-(C3-Pad1)*%
X169000000Y-112750000D03*
%TO.P,C3,2*%
%TO.N,Net-(C2-Pad1)*%
X169000000Y-110250000D03*
%TD*%
D20*
%TO.N,Net-(A1-VBUS)*%
X146000000Y-126500000D02*
X149101000Y-123399000D01*
X146561000Y-127061000D02*
X146000000Y-126500000D01*
X149101000Y-123399000D02*
X149101000Y-113851000D01*
X149101000Y-113851000D02*
X148000000Y-112750000D01*
X148000000Y-112750000D02*
X149490000Y-112750000D01*
X160399000Y-127061000D02*
X146561000Y-127061000D01*
X161500000Y-125960000D02*
X160399000Y-127061000D01*
X149490000Y-112750000D02*
X157220000Y-105020000D01*
%TO.N,Net-(A1-3V3)*%
X183000000Y-87500000D02*
X179472240Y-91027760D01*
X131500000Y-118460000D02*
X122380000Y-127580000D01*
X153651000Y-74151000D02*
X152000000Y-72500000D01*
X153651000Y-86149000D02*
X153651000Y-74151000D01*
X157220000Y-94860000D02*
X156000000Y-93640000D01*
X179789000Y-98789000D02*
X183000000Y-102000000D01*
X183000000Y-104500000D02*
X183000000Y-102000000D01*
X179472240Y-91027760D02*
X161052240Y-91027760D01*
X156000000Y-90800000D02*
X152500000Y-87300000D01*
X157220000Y-94860000D02*
X156069000Y-96011000D01*
X131500000Y-113000000D02*
X131500000Y-118460000D01*
X152500000Y-87300000D02*
X153651000Y-86149000D01*
X161052240Y-91027760D02*
X157220000Y-94860000D01*
X192199000Y-78301000D02*
X183000000Y-87500000D01*
X156069000Y-96011000D02*
X156069000Y-101091000D01*
X156069000Y-101091000D02*
X144160000Y-113000000D01*
X161149000Y-98789000D02*
X179789000Y-98789000D01*
X157220000Y-94860000D02*
X161149000Y-98789000D01*
X156000000Y-93640000D02*
X156000000Y-90800000D01*
X143059000Y-111899000D02*
X144160000Y-113000000D01*
X152000000Y-72500000D02*
X152000000Y-66000000D01*
X189500000Y-102000000D02*
X183000000Y-102000000D01*
X193500000Y-65000000D02*
X192199000Y-66301000D01*
X131500000Y-113000000D02*
X132601000Y-111899000D01*
X132601000Y-111899000D02*
X143059000Y-111899000D01*
X189500000Y-87500000D02*
X183000000Y-87500000D01*
X193500000Y-115000000D02*
X183000000Y-104500000D01*
X192199000Y-66301000D02*
X192199000Y-78301000D01*
%TO.N,Net-(AE1-A)*%
X141500000Y-121300000D02*
X137620000Y-117420000D01*
X141500000Y-123000000D02*
X141500000Y-121300000D01*
%TD*%
M02*
