%TF.GenerationSoftware,KiCad,Pcbnew,9.0.2*%
%TF.CreationDate,2025-07-11T11:45:56-07:00*%
%TF.ProjectId,Radio,52616469-6f2e-46b6-9963-61645f706362,1*%
%TF.SameCoordinates,Original*%
%TF.FileFunction,Soldermask,Bot*%
%TF.FilePolarity,Negative*%
%FSLAX46Y46*%
G04 Gerber Fmt 4.6, Leading zero omitted, Abs format (unit mm)*
G04 Created by KiCad (PCBNEW 9.0.2) date 2025-07-11 11:45:56*
%MOMM*%
%LPD*%
G01*
G04 APERTURE LIST*
G04 Aperture macros list*
%AMRoundRect*
0 Rectangle with rounded corners*
0 $1 Rounding radius*
0 $2 $3 $4 $5 $6 $7 $8 $9 X,Y pos of 4 corners*
0 Add a 4 corners polygon primitive as box body*
4,1,4,$2,$3,$4,$5,$6,$7,$8,$9,$2,$3,0*
0 Add four circle primitives for the rounded corners*
1,1,$1+$1,$2,$3*
1,1,$1+$1,$4,$5*
1,1,$1+$1,$6,$7*
1,1,$1+$1,$8,$9*
0 Add four rect primitives between the rounded corners*
20,1,$1+$1,$2,$3,$4,$5,0*
20,1,$1+$1,$4,$5,$6,$7,0*
20,1,$1+$1,$6,$7,$8,$9,0*
20,1,$1+$1,$8,$9,$2,$3,0*%
G04 Aperture macros list end*
%ADD10C,3.200000*%
%ADD11RoundRect,0.250000X-0.550000X-0.550000X0.550000X-0.550000X0.550000X0.550000X-0.550000X0.550000X0*%
%ADD12C,1.600000*%
%ADD13RoundRect,0.250000X-1.050000X-1.050000X1.050000X-1.050000X1.050000X1.050000X-1.050000X1.050000X0*%
%ADD14C,2.600000*%
%ADD15C,2.000000*%
%ADD16R,1.700000X1.700000*%
%ADD17C,1.700000*%
%ADD18R,2.000000X2.000000*%
%ADD19R,3.000000X2.500000*%
G04 APERTURE END LIST*
D10*
%TO.C,REF\u002A\u002A*%
X192000000Y-58000000D03*
%TD*%
%TO.C,REF\u002A\u002A*%
X129000000Y-106500000D03*
%TD*%
%TO.C,REF\u002A\u002A*%
X191000000Y-92500000D03*
%TD*%
%TO.C,REF\u002A\u002A*%
X126000000Y-60000000D03*
%TD*%
D11*
%TO.C,C2*%
X172500000Y-111500000D03*
D12*
X175000000Y-111500000D03*
%TD*%
D13*
%TO.C,LS1*%
X169000000Y-124500000D03*
D14*
X174000000Y-124500000D03*
%TD*%
D12*
%TO.C,Rpullup1*%
X131500000Y-113000000D03*
X121340000Y-113000000D03*
%TD*%
%TO.C,R4*%
X122420000Y-69500000D03*
X132580000Y-69500000D03*
%TD*%
D11*
%TO.C,C4*%
X143500000Y-119000000D03*
D12*
X146000000Y-119000000D03*
%TD*%
%TO.C,R2*%
X164500000Y-128580000D03*
X164500000Y-118420000D03*
%TD*%
D15*
%TO.C,SW3*%
X183000000Y-97500000D03*
X189500000Y-97500000D03*
X183000000Y-102000000D03*
X189500000Y-102000000D03*
%TD*%
D12*
%TO.C,R5*%
X122420000Y-73000000D03*
X132580000Y-73000000D03*
%TD*%
%TO.C,R6*%
X188580000Y-108500000D03*
X178420000Y-108500000D03*
%TD*%
%TO.C,R1*%
X156000000Y-118000000D03*
X156000000Y-107840000D03*
%TD*%
%TO.C,C7*%
X149500000Y-72500000D03*
X152000000Y-72500000D03*
%TD*%
D16*
%TO.C,U2*%
X122380000Y-117420000D03*
D17*
X122380000Y-119960000D03*
X122380000Y-122500000D03*
X122380000Y-125040000D03*
X122380000Y-127580000D03*
X137620000Y-127580000D03*
X137620000Y-125040000D03*
X137620000Y-122500000D03*
X137620000Y-119960000D03*
X137620000Y-117420000D03*
%TD*%
D12*
%TO.C,Rpullup2*%
X144160000Y-113000000D03*
X134000000Y-113000000D03*
%TD*%
D11*
%TO.C,U1*%
X153880000Y-120880000D03*
D12*
X153880000Y-123420000D03*
X153880000Y-125960000D03*
X153880000Y-128500000D03*
X161500000Y-128500000D03*
X161500000Y-125960000D03*
X161500000Y-123420000D03*
X161500000Y-120880000D03*
%TD*%
%TO.C,C5*%
X148000000Y-115250000D03*
X148000000Y-112750000D03*
%TD*%
D18*
%TO.C,SW2*%
X179000000Y-65000000D03*
D15*
X179000000Y-70000000D03*
X179000000Y-67500000D03*
D19*
X186500000Y-61900000D03*
X186500000Y-73100000D03*
D15*
X193500000Y-65000000D03*
X193500000Y-70000000D03*
%TD*%
D16*
%TO.C,DISP1*%
X152500000Y-84760000D03*
D17*
X152500000Y-87300000D03*
X152500000Y-89840000D03*
X152500000Y-92380000D03*
X152500000Y-94920000D03*
X152500000Y-97460000D03*
X152500000Y-100000000D03*
%TD*%
D11*
%TO.C,C6*%
X143500000Y-126500000D03*
D12*
X146000000Y-126500000D03*
%TD*%
%TO.C,R9*%
X189000000Y-76500000D03*
X178840000Y-76500000D03*
%TD*%
D16*
%TO.C,A1*%
X175000000Y-105020000D03*
D17*
X175000000Y-102480000D03*
X175000000Y-99940000D03*
X175000000Y-97400000D03*
X175000000Y-94860000D03*
X175000000Y-92320000D03*
X175000000Y-89780000D03*
X175000000Y-87240000D03*
X175000000Y-84700000D03*
X175000000Y-82160000D03*
X175000000Y-79620000D03*
X175000000Y-77080000D03*
X175000000Y-74540000D03*
X175000000Y-72000000D03*
X175000000Y-69460000D03*
X175000000Y-66920000D03*
X175000000Y-64380000D03*
X175000000Y-61840000D03*
X175000000Y-59300000D03*
X175000000Y-56760000D03*
X157220000Y-56760000D03*
X157220000Y-59300000D03*
X157220000Y-61840000D03*
X157220000Y-64380000D03*
X157220000Y-66920000D03*
X157220000Y-69460000D03*
X157220000Y-72000000D03*
X157220000Y-74540000D03*
X157220000Y-77080000D03*
X157220000Y-79620000D03*
X157220000Y-82160000D03*
X157220000Y-84700000D03*
X157220000Y-87240000D03*
X157220000Y-89780000D03*
X157220000Y-92320000D03*
X157220000Y-94860000D03*
X157220000Y-97400000D03*
X157220000Y-99940000D03*
X157220000Y-102480000D03*
X157220000Y-105020000D03*
%TD*%
D11*
%TO.C,C1*%
X163000000Y-111500000D03*
D12*
X165500000Y-111500000D03*
%TD*%
%TO.C,R3*%
X150500000Y-128660000D03*
X150500000Y-118500000D03*
%TD*%
D15*
%TO.C,SW4*%
X183000000Y-83000000D03*
X189500000Y-83000000D03*
X183000000Y-87500000D03*
X189500000Y-87500000D03*
%TD*%
D12*
%TO.C,R7*%
X188500000Y-126500000D03*
X178340000Y-126500000D03*
%TD*%
D18*
%TO.C,SW1*%
X179000000Y-115000000D03*
D15*
X179000000Y-120000000D03*
X179000000Y-117500000D03*
D19*
X186500000Y-111900000D03*
X186500000Y-123100000D03*
D15*
X193500000Y-115000000D03*
X193500000Y-120000000D03*
%TD*%
D12*
%TO.C,R8*%
X188580000Y-58500000D03*
X178420000Y-58500000D03*
%TD*%
D11*
%TO.C,C8*%
X149500000Y-66000000D03*
D12*
X152000000Y-66000000D03*
%TD*%
%TO.C,C3*%
X169000000Y-112750000D03*
X169000000Y-110250000D03*
%TD*%
M02*
