%TF.GenerationSoftware,KiCad,Pcbnew,9.0.2*%
%TF.CreationDate,2025-07-11T11:45:56-07:00*%
%TF.ProjectId,Radio,52616469-6f2e-46b6-9963-61645f706362,1*%
%TF.SameCoordinates,Original*%
%TF.FileFunction,Copper,L2,Inr*%
%TF.FilePolarity,Positive*%
%FSLAX46Y46*%
G04 Gerber Fmt 4.6, Leading zero omitted, Abs format (unit mm)*
G04 Created by KiCad (PCBNEW 9.0.2) date 2025-07-11 11:45:56*
%MOMM*%
%LPD*%
G01*
G04 APERTURE LIST*
G04 Aperture macros list*
%AMRoundRect*
0 Rectangle with rounded corners*
0 $1 Rounding radius*
0 $2 $3 $4 $5 $6 $7 $8 $9 X,Y pos of 4 corners*
0 Add a 4 corners polygon primitive as box body*
4,1,4,$2,$3,$4,$5,$6,$7,$8,$9,$2,$3,0*
0 Add four circle primitives for the rounded corners*
1,1,$1+$1,$2,$3*
1,1,$1+$1,$4,$5*
1,1,$1+$1,$6,$7*
1,1,$1+$1,$8,$9*
0 Add four rect primitives between the rounded corners*
20,1,$1+$1,$2,$3,$4,$5,0*
20,1,$1+$1,$4,$5,$6,$7,0*
20,1,$1+$1,$6,$7,$8,$9,0*
20,1,$1+$1,$8,$9,$2,$3,0*%
G04 Aperture macros list end*
%TA.AperFunction,ComponentPad*%
%ADD10RoundRect,0.250000X-0.550000X-0.550000X0.550000X-0.550000X0.550000X0.550000X-0.550000X0.550000X0*%
%TD*%
%TA.AperFunction,ComponentPad*%
%ADD11C,1.600000*%
%TD*%
%TA.AperFunction,ComponentPad*%
%ADD12RoundRect,0.250000X-1.050000X-1.050000X1.050000X-1.050000X1.050000X1.050000X-1.050000X1.050000X0*%
%TD*%
%TA.AperFunction,ComponentPad*%
%ADD13C,2.600000*%
%TD*%
%TA.AperFunction,ComponentPad*%
%ADD14C,2.000000*%
%TD*%
%TA.AperFunction,ComponentPad*%
%ADD15R,1.700000X1.700000*%
%TD*%
%TA.AperFunction,ComponentPad*%
%ADD16C,1.700000*%
%TD*%
%TA.AperFunction,ComponentPad*%
%ADD17R,2.000000X2.000000*%
%TD*%
%TA.AperFunction,ComponentPad*%
%ADD18R,3.000000X2.500000*%
%TD*%
%TA.AperFunction,Conductor*%
%ADD19C,0.200000*%
%TD*%
G04 APERTURE END LIST*
D10*
%TO.N,Net-(C2-Pad1)*%
%TO.C,C2*%
X172500000Y-111500000D03*
D11*
%TO.N,Net-(C2-Pad2)*%
X175000000Y-111500000D03*
%TD*%
D12*
%TO.N,Net-(C2-Pad2)*%
%TO.C,LS1*%
X169000000Y-124500000D03*
D13*
%TO.N,Net-(DISP1-VSS{slash}GND)*%
X174000000Y-124500000D03*
%TD*%
D11*
%TO.N,Net-(A1-3V3)*%
%TO.C,Rpullup1*%
X131500000Y-113000000D03*
%TO.N,Net-(A1-GPIO26_ADC0)*%
X121340000Y-113000000D03*
%TD*%
%TO.N,Net-(C4-Pad1)*%
%TO.C,R4*%
X122420000Y-69500000D03*
%TO.N,Net-(U2-LOUT)*%
X132580000Y-69500000D03*
%TD*%
D10*
%TO.N,Net-(C4-Pad1)*%
%TO.C,C4*%
X143500000Y-119000000D03*
D11*
%TO.N,Net-(U1-+)*%
X146000000Y-119000000D03*
%TD*%
%TO.N,Net-(R2-Pad1)*%
%TO.C,R2*%
X164500000Y-128580000D03*
%TO.N,Net-(R2-Pad2)*%
X164500000Y-118420000D03*
%TD*%
D14*
%TO.N,Net-(A1-GPIO3)*%
%TO.C,SW3*%
X183000000Y-97500000D03*
X189500000Y-97500000D03*
%TO.N,Net-(A1-3V3)*%
X183000000Y-102000000D03*
X189500000Y-102000000D03*
%TD*%
D11*
%TO.N,Net-(U2-ROUT)*%
%TO.C,R5*%
X122420000Y-73000000D03*
%TO.N,Net-(C4-Pad1)*%
X132580000Y-73000000D03*
%TD*%
%TO.N,Net-(R6-Pad1)*%
%TO.C,R6*%
X188580000Y-108500000D03*
%TO.N,Net-(A1-GPIO1)*%
X178420000Y-108500000D03*
%TD*%
%TO.N,Net-(DISP1-VSS{slash}GND)*%
%TO.C,R1*%
X156000000Y-118000000D03*
%TO.N,Net-(C3-Pad1)*%
X156000000Y-107840000D03*
%TD*%
%TO.N,Net-(DISP1-VSS{slash}GND)*%
%TO.C,C7*%
X149500000Y-72500000D03*
%TO.N,Net-(A1-3V3)*%
X152000000Y-72500000D03*
%TD*%
D15*
%TO.N,Net-(A1-GPIO26_ADC0)*%
%TO.C,U2*%
X122380000Y-117420000D03*
D16*
%TO.N,Net-(A1-GPIO27_ADC1)*%
X122380000Y-119960000D03*
%TO.N,unconnected-(U2-N{slash}C-Pad3)*%
X122380000Y-122500000D03*
%TO.N,unconnected-(U2-N{slash}C-Pad4)*%
X122380000Y-125040000D03*
%TO.N,Net-(A1-3V3)*%
X122380000Y-127580000D03*
%TO.N,Net-(DISP1-VSS{slash}GND)*%
X137620000Y-127580000D03*
%TO.N,Net-(U2-ROUT)*%
X137620000Y-125040000D03*
%TO.N,Net-(U2-LOUT)*%
X137620000Y-122500000D03*
%TO.N,unconnected-(U2-N{slash}C-Pad9)*%
X137620000Y-119960000D03*
%TO.N,Net-(AE1-A)*%
X137620000Y-117420000D03*
%TD*%
D11*
%TO.N,Net-(A1-3V3)*%
%TO.C,Rpullup2*%
X144160000Y-113000000D03*
%TO.N,Net-(A1-GPIO27_ADC1)*%
X134000000Y-113000000D03*
%TD*%
D10*
%TO.N,Net-(R2-Pad1)*%
%TO.C,U1*%
X153880000Y-120880000D03*
D11*
%TO.N,Net-(DISP1-VSS{slash}GND)*%
X153880000Y-123420000D03*
%TO.N,Net-(U1-+)*%
X153880000Y-125960000D03*
%TO.N,Net-(DISP1-VSS{slash}GND)*%
X153880000Y-128500000D03*
%TO.N,Net-(C2-Pad1)*%
X161500000Y-128500000D03*
%TO.N,Net-(A1-VBUS)*%
X161500000Y-125960000D03*
%TO.N,Net-(U1-BYPASS)*%
X161500000Y-123420000D03*
%TO.N,Net-(R2-Pad2)*%
X161500000Y-120880000D03*
%TD*%
%TO.N,Net-(DISP1-VSS{slash}GND)*%
%TO.C,C5*%
X148000000Y-115250000D03*
%TO.N,Net-(A1-VBUS)*%
X148000000Y-112750000D03*
%TD*%
D17*
%TO.N,Net-(R8-Pad1)*%
%TO.C,SW2*%
X179000000Y-65000000D03*
D14*
%TO.N,Net-(R9-Pad1)*%
X179000000Y-70000000D03*
%TO.N,Net-(DISP1-VSS{slash}GND)*%
X179000000Y-67500000D03*
D18*
%TO.N,unconnected-(SW2-PadMP)_1*%
X186500000Y-61900000D03*
%TO.N,unconnected-(SW2-PadMP)*%
X186500000Y-73100000D03*
D14*
%TO.N,Net-(A1-3V3)*%
X193500000Y-65000000D03*
%TO.N,Net-(A1-GPIO13)*%
X193500000Y-70000000D03*
%TD*%
D15*
%TO.N,Net-(DISP1-VSS{slash}GND)*%
%TO.C,DISP1*%
X152500000Y-84760000D03*
D16*
%TO.N,Net-(A1-3V3)*%
X152500000Y-87300000D03*
%TO.N,Net-(A1-GPIO16)*%
X152500000Y-89840000D03*
%TO.N,Net-(A1-GPIO19)*%
X152500000Y-92380000D03*
%TO.N,Net-(A1-GPIO20)*%
X152500000Y-94920000D03*
%TO.N,Net-(A1-GPIO21)*%
X152500000Y-97460000D03*
%TO.N,Net-(A1-GPIO17)*%
X152500000Y-100000000D03*
%TD*%
D10*
%TO.N,Net-(DISP1-VSS{slash}GND)*%
%TO.C,C6*%
X143500000Y-126500000D03*
D11*
%TO.N,Net-(A1-VBUS)*%
X146000000Y-126500000D03*
%TD*%
%TO.N,Net-(R9-Pad1)*%
%TO.C,R9*%
X189000000Y-76500000D03*
%TO.N,Net-(A1-GPIO15)*%
X178840000Y-76500000D03*
%TD*%
D15*
%TO.N,Net-(A1-GPIO0)*%
%TO.C,A1*%
X175000000Y-105020000D03*
D16*
%TO.N,Net-(A1-GPIO1)*%
X175000000Y-102480000D03*
%TO.N,Net-(DISP1-VSS{slash}GND)*%
X175000000Y-99940000D03*
%TO.N,Net-(A1-GPIO2)*%
X175000000Y-97400000D03*
%TO.N,Net-(A1-GPIO3)*%
X175000000Y-94860000D03*
%TO.N,unconnected-(A1-GPIO4-Pad6)*%
X175000000Y-92320000D03*
%TO.N,unconnected-(A1-GPIO5-Pad7)*%
X175000000Y-89780000D03*
%TO.N,Net-(DISP1-VSS{slash}GND)*%
X175000000Y-87240000D03*
%TO.N,unconnected-(A1-GPIO6-Pad9)*%
X175000000Y-84700000D03*
%TO.N,Net-(A1-GPIO7)*%
X175000000Y-82160000D03*
%TO.N,unconnected-(A1-GPIO8-Pad11)*%
X175000000Y-79620000D03*
%TO.N,unconnected-(A1-GPIO9-Pad12)*%
X175000000Y-77080000D03*
%TO.N,Net-(DISP1-VSS{slash}GND)*%
X175000000Y-74540000D03*
%TO.N,unconnected-(A1-GPIO10-Pad14)*%
X175000000Y-72000000D03*
%TO.N,unconnected-(A1-GPIO11-Pad15)*%
X175000000Y-69460000D03*
%TO.N,unconnected-(A1-GPIO12-Pad16)*%
X175000000Y-66920000D03*
%TO.N,Net-(A1-GPIO13)*%
X175000000Y-64380000D03*
%TO.N,Net-(DISP1-VSS{slash}GND)*%
X175000000Y-61840000D03*
%TO.N,Net-(A1-GPIO14)*%
X175000000Y-59300000D03*
%TO.N,Net-(A1-GPIO15)*%
X175000000Y-56760000D03*
%TO.N,Net-(A1-GPIO16)*%
X157220000Y-56760000D03*
%TO.N,Net-(A1-GPIO17)*%
X157220000Y-59300000D03*
%TO.N,Net-(DISP1-VSS{slash}GND)*%
X157220000Y-61840000D03*
%TO.N,unconnected-(A1-GPIO18-Pad24)*%
X157220000Y-64380000D03*
%TO.N,Net-(A1-GPIO19)*%
X157220000Y-66920000D03*
%TO.N,Net-(A1-GPIO20)*%
X157220000Y-69460000D03*
%TO.N,Net-(A1-GPIO21)*%
X157220000Y-72000000D03*
%TO.N,Net-(DISP1-VSS{slash}GND)*%
X157220000Y-74540000D03*
%TO.N,unconnected-(A1-GPIO22-Pad29)*%
X157220000Y-77080000D03*
%TO.N,unconnected-(A1-RUN-Pad30)*%
X157220000Y-79620000D03*
%TO.N,Net-(A1-GPIO26_ADC0)*%
X157220000Y-82160000D03*
%TO.N,Net-(A1-GPIO27_ADC1)*%
X157220000Y-84700000D03*
%TO.N,unconnected-(A1-AGND-Pad33)*%
X157220000Y-87240000D03*
%TO.N,unconnected-(A1-GPIO28_ADC2-Pad34)*%
X157220000Y-89780000D03*
%TO.N,unconnected-(A1-ADC_VREF-Pad35)*%
X157220000Y-92320000D03*
%TO.N,Net-(A1-3V3)*%
X157220000Y-94860000D03*
%TO.N,unconnected-(A1-3V3_EN-Pad37)*%
X157220000Y-97400000D03*
%TO.N,Net-(DISP1-VSS{slash}GND)*%
X157220000Y-99940000D03*
%TO.N,unconnected-(A1-VSYS-Pad39)*%
X157220000Y-102480000D03*
%TO.N,Net-(A1-VBUS)*%
X157220000Y-105020000D03*
%TD*%
D10*
%TO.N,Net-(DISP1-VSS{slash}GND)*%
%TO.C,C1*%
X163000000Y-111500000D03*
D11*
%TO.N,Net-(U1-BYPASS)*%
X165500000Y-111500000D03*
%TD*%
%TO.N,Net-(DISP1-VSS{slash}GND)*%
%TO.C,R3*%
X150500000Y-128660000D03*
%TO.N,Net-(C4-Pad1)*%
X150500000Y-118500000D03*
%TD*%
D14*
%TO.N,Net-(A1-GPIO7)*%
%TO.C,SW4*%
X183000000Y-83000000D03*
X189500000Y-83000000D03*
%TO.N,Net-(A1-3V3)*%
X183000000Y-87500000D03*
X189500000Y-87500000D03*
%TD*%
D11*
%TO.N,Net-(R7-Pad1)*%
%TO.C,R7*%
X188500000Y-126500000D03*
%TO.N,Net-(A1-GPIO2)*%
X178340000Y-126500000D03*
%TD*%
D17*
%TO.N,Net-(R6-Pad1)*%
%TO.C,SW1*%
X179000000Y-115000000D03*
D14*
%TO.N,Net-(R7-Pad1)*%
X179000000Y-120000000D03*
%TO.N,Net-(DISP1-VSS{slash}GND)*%
X179000000Y-117500000D03*
D18*
%TO.N,unconnected-(SW1-PadMP)_1*%
X186500000Y-111900000D03*
%TO.N,unconnected-(SW1-PadMP)*%
X186500000Y-123100000D03*
D14*
%TO.N,Net-(A1-3V3)*%
X193500000Y-115000000D03*
%TO.N,Net-(A1-GPIO0)*%
X193500000Y-120000000D03*
%TD*%
D11*
%TO.N,Net-(R8-Pad1)*%
%TO.C,R8*%
X188580000Y-58500000D03*
%TO.N,Net-(A1-GPIO14)*%
X178420000Y-58500000D03*
%TD*%
D10*
%TO.N,Net-(DISP1-VSS{slash}GND)*%
%TO.C,C8*%
X149500000Y-66000000D03*
D11*
%TO.N,Net-(A1-3V3)*%
X152000000Y-66000000D03*
%TD*%
%TO.N,Net-(C3-Pad1)*%
%TO.C,C3*%
X169000000Y-112750000D03*
%TO.N,Net-(C2-Pad1)*%
X169000000Y-110250000D03*
%TD*%
D19*
%TO.N,Net-(A1-GPIO1)*%
X178420000Y-105900000D02*
X175000000Y-102480000D01*
X178420000Y-108500000D02*
X178420000Y-105900000D01*
%TO.N,Net-(A1-GPIO0)*%
X174523240Y-96249000D02*
X173849000Y-96923240D01*
X192199000Y-109359108D02*
X179088892Y-96249000D01*
X173849000Y-96923240D02*
X173849000Y-103869000D01*
X173849000Y-103869000D02*
X175000000Y-105020000D01*
X193500000Y-120000000D02*
X192199000Y-118699000D01*
X179088892Y-96249000D02*
X174523240Y-96249000D01*
X192199000Y-118699000D02*
X192199000Y-109359108D01*
%TO.N,Net-(A1-GPIO19)*%
X152500000Y-92380000D02*
X156069000Y-88811000D01*
X156069000Y-68071000D02*
X157220000Y-66920000D01*
X156069000Y-88811000D02*
X156069000Y-68071000D01*
%TO.N,Net-(A1-GPIO20)*%
X155668000Y-66844240D02*
X156743240Y-65769000D01*
X151349000Y-91903240D02*
X152023240Y-91229000D01*
X156743240Y-65769000D02*
X157696760Y-65769000D01*
X158371000Y-68309000D02*
X157220000Y-69460000D01*
X157696760Y-65769000D02*
X158371000Y-66443240D01*
X158371000Y-66443240D02*
X158371000Y-68309000D01*
X151349000Y-93769000D02*
X151349000Y-91903240D01*
X152023240Y-91229000D02*
X152771000Y-91229000D01*
X155668000Y-88332000D02*
X155668000Y-66844240D01*
X152500000Y-94920000D02*
X151349000Y-93769000D01*
X152771000Y-91229000D02*
X155668000Y-88332000D01*
%TO.N,Net-(A1-GPIO17)*%
X158371000Y-58149000D02*
X157220000Y-59300000D01*
X150899000Y-98399000D02*
X150899000Y-61453240D01*
X157696760Y-55609000D02*
X158371000Y-56283240D01*
X158371000Y-56283240D02*
X158371000Y-58149000D01*
X150899000Y-61453240D02*
X156743240Y-55609000D01*
X152500000Y-100000000D02*
X150899000Y-98399000D01*
X156743240Y-55609000D02*
X157696760Y-55609000D01*
%TO.N,Net-(A1-GPIO21)*%
X158371000Y-90256760D02*
X158371000Y-73151000D01*
X158371000Y-73151000D02*
X157220000Y-72000000D01*
X157696760Y-90931000D02*
X158371000Y-90256760D01*
X156069000Y-91605240D02*
X156743240Y-90931000D01*
X156069000Y-93891000D02*
X156069000Y-91605240D01*
X156743240Y-90931000D02*
X157696760Y-90931000D01*
X152500000Y-97460000D02*
X156069000Y-93891000D01*
%TO.N,Net-(A1-GPIO3)*%
X180360000Y-94860000D02*
X175000000Y-94860000D01*
X189500000Y-97500000D02*
X183000000Y-97500000D01*
X183000000Y-97500000D02*
X180360000Y-94860000D01*
%TO.N,Net-(A1-GPIO16)*%
X153651000Y-88689000D02*
X153651000Y-60329000D01*
X152500000Y-89840000D02*
X153651000Y-88689000D01*
X153651000Y-60329000D02*
X157220000Y-56760000D01*
%TO.N,Net-(A1-GPIO2)*%
X179521000Y-101921000D02*
X175000000Y-97400000D01*
X178340000Y-126500000D02*
X177319000Y-125479000D01*
X179521000Y-108956050D02*
X179521000Y-101921000D01*
X177319000Y-111158050D02*
X179521000Y-108956050D01*
X177319000Y-125479000D02*
X177319000Y-111158050D01*
%TO.N,Net-(U1-BYPASS)*%
X165500000Y-111500000D02*
X163000000Y-114000000D01*
X163000000Y-114000000D02*
X163000000Y-121920000D01*
X163000000Y-121920000D02*
X161500000Y-123420000D01*
%TO.N,Net-(C2-Pad2)*%
X169000000Y-124500000D02*
X169000000Y-117500000D01*
X169000000Y-117500000D02*
X175000000Y-111500000D01*
%TO.N,Net-(C2-Pad1)*%
X152779000Y-120094840D02*
X153772840Y-119101000D01*
X153094840Y-121981000D02*
X152779000Y-121665160D01*
X164399000Y-111043950D02*
X165192950Y-110250000D01*
X160932900Y-128500000D02*
X154413900Y-121981000D01*
X153772840Y-119101000D02*
X157331900Y-119101000D01*
X172500000Y-111500000D02*
X170250000Y-111500000D01*
X164399000Y-112033900D02*
X164399000Y-111043950D01*
X165192950Y-110250000D02*
X169000000Y-110250000D01*
X170250000Y-111500000D02*
X169000000Y-110250000D01*
X152779000Y-121665160D02*
X152779000Y-120094840D01*
X161500000Y-128500000D02*
X160932900Y-128500000D01*
X154413900Y-121981000D02*
X153094840Y-121981000D01*
X157331900Y-119101000D02*
X164399000Y-112033900D01*
%TO.N,Net-(C3-Pad1)*%
X170726160Y-107840000D02*
X156000000Y-107840000D01*
X173601000Y-112285160D02*
X173601000Y-110714840D01*
X173136160Y-112750000D02*
X173601000Y-112285160D01*
X169000000Y-112750000D02*
X173136160Y-112750000D01*
X173601000Y-110714840D02*
X170726160Y-107840000D01*
%TO.N,Net-(C4-Pad1)*%
X123521000Y-68399000D02*
X133036050Y-68399000D01*
X143500000Y-119000000D02*
X132580000Y-108080000D01*
X122420000Y-69500000D02*
X123521000Y-68399000D01*
X133681000Y-71899000D02*
X132580000Y-73000000D01*
X132580000Y-108080000D02*
X132580000Y-73000000D01*
X149899000Y-117899000D02*
X150500000Y-118500000D01*
X144601000Y-117899000D02*
X149899000Y-117899000D01*
X133681000Y-69043950D02*
X133681000Y-71899000D01*
X143500000Y-119000000D02*
X144601000Y-117899000D01*
X133036050Y-68399000D02*
X133681000Y-69043950D01*
%TO.N,Net-(A1-GPIO7)*%
X189500000Y-83000000D02*
X183000000Y-83000000D01*
X183000000Y-83000000D02*
X175840000Y-83000000D01*
X175840000Y-83000000D02*
X175000000Y-82160000D01*
%TO.N,Net-(U1-+)*%
X146000000Y-123386160D02*
X146000000Y-119000000D01*
X153880000Y-125960000D02*
X148573840Y-125960000D01*
X148573840Y-125960000D02*
X146000000Y-123386160D01*
%TO.N,Net-(U2-ROUT)*%
X122420000Y-109840000D02*
X137620000Y-125040000D01*
X122420000Y-73000000D02*
X122420000Y-109840000D01*
%TO.N,Net-(U2-LOUT)*%
X136469000Y-121349000D02*
X137620000Y-122500000D01*
X131479000Y-70601000D02*
X131479000Y-108479000D01*
X132580000Y-69500000D02*
X131479000Y-70601000D01*
X136469000Y-113469000D02*
X136469000Y-121349000D01*
X131479000Y-108479000D02*
X136469000Y-113469000D01*
%TO.N,Net-(R6-Pad1)*%
X185500000Y-108500000D02*
X188580000Y-108500000D01*
X179000000Y-115000000D02*
X185500000Y-108500000D01*
%TO.N,Net-(R2-Pad1)*%
X164500000Y-128580000D02*
X163319000Y-127399000D01*
X160399000Y-127399000D02*
X153880000Y-120880000D01*
X163319000Y-127399000D02*
X160399000Y-127399000D01*
%TO.N,Net-(R2-Pad2)*%
X160399000Y-123876050D02*
X160399000Y-121981000D01*
X161043950Y-124521000D02*
X160399000Y-123876050D01*
X164500000Y-118420000D02*
X164500000Y-121977050D01*
X160399000Y-121981000D02*
X161500000Y-120880000D01*
X161956050Y-124521000D02*
X161043950Y-124521000D01*
X164500000Y-121977050D02*
X161956050Y-124521000D01*
%TO.N,Net-(R7-Pad1)*%
X185500000Y-126500000D02*
X188500000Y-126500000D01*
X179000000Y-120000000D02*
X185500000Y-126500000D01*
%TO.N,Net-(R8-Pad1)*%
X185500000Y-58500000D02*
X188580000Y-58500000D01*
X179000000Y-65000000D02*
X185500000Y-58500000D01*
%TO.N,Net-(R9-Pad1)*%
X179000000Y-70000000D02*
X185500000Y-76500000D01*
X185500000Y-76500000D02*
X189000000Y-76500000D01*
%TO.N,Net-(A1-GPIO15)*%
X175238760Y-70611000D02*
X178840000Y-74212240D01*
X175000000Y-56760000D02*
X173849000Y-57911000D01*
X178840000Y-74212240D02*
X178840000Y-76500000D01*
X173849000Y-57911000D02*
X173849000Y-69936760D01*
X173849000Y-69936760D02*
X174523240Y-70611000D01*
X174523240Y-70611000D02*
X175238760Y-70611000D01*
%TO.N,Net-(A1-GPIO14)*%
X178420000Y-58500000D02*
X175800000Y-58500000D01*
X175800000Y-58500000D02*
X175000000Y-59300000D01*
%TO.N,Net-(A1-GPIO13)*%
X193500000Y-70000000D02*
X193500000Y-73557050D01*
X176151000Y-65531000D02*
X175000000Y-64380000D01*
X184761108Y-77601000D02*
X176151000Y-68990892D01*
X193500000Y-73557050D02*
X189456050Y-77601000D01*
X189456050Y-77601000D02*
X184761108Y-77601000D01*
X176151000Y-68990892D02*
X176151000Y-65531000D01*
%TD*%
M02*
